G75*
%MOIN*%
%OFA0B0*%
%FSLAX24Y24*%
%IPPOS*%
%LPD*%
%AMOC8*
5,1,8,0,0,1.08239X$1,22.5*
%
%ADD10C,0.0060*%
%ADD11C,0.0050*%
%ADD12R,0.0340X0.0240*%
%ADD13R,0.0240X0.0340*%
%ADD14R,0.0200X0.0800*%
%ADD15R,0.0250X0.0200*%
%ADD16C,0.0020*%
%ADD17C,0.0100*%
%ADD18R,0.1500X0.0300*%
%ADD19C,0.0070*%
D10*
X003145Y003640D02*
X003145Y003790D01*
X002995Y003790D01*
X003145Y003790D02*
X003145Y003940D01*
X003145Y003790D02*
X003295Y003790D01*
X002545Y004440D02*
X002547Y004506D01*
X002553Y004571D01*
X002563Y004636D01*
X002576Y004701D01*
X002594Y004764D01*
X002615Y004827D01*
X002640Y004887D01*
X002669Y004947D01*
X002701Y005004D01*
X002736Y005060D01*
X002775Y005113D01*
X002817Y005164D01*
X002861Y005212D01*
X002909Y005257D01*
X002959Y005300D01*
X003012Y005339D01*
X003067Y005376D01*
X003124Y005409D01*
X003183Y005438D01*
X003243Y005464D01*
X003305Y005486D01*
X003368Y005505D01*
X003432Y005519D01*
X003497Y005530D01*
X003563Y005537D01*
X003629Y005540D01*
X003694Y005539D01*
X003760Y005534D01*
X003825Y005525D01*
X003890Y005512D01*
X003953Y005496D01*
X004016Y005476D01*
X004077Y005451D01*
X004137Y005424D01*
X004195Y005393D01*
X004251Y005358D01*
X004305Y005320D01*
X004356Y005279D01*
X004405Y005235D01*
X004451Y005188D01*
X004495Y005139D01*
X004535Y005087D01*
X004572Y005032D01*
X004606Y004976D01*
X004636Y004917D01*
X004663Y004857D01*
X004686Y004796D01*
X004705Y004733D01*
X004721Y004669D01*
X004733Y004604D01*
X004741Y004539D01*
X004745Y004473D01*
X004745Y004407D01*
X004741Y004341D01*
X004733Y004276D01*
X004721Y004211D01*
X004705Y004147D01*
X004686Y004084D01*
X004663Y004023D01*
X004636Y003963D01*
X004606Y003904D01*
X004572Y003848D01*
X004535Y003793D01*
X004495Y003741D01*
X004451Y003692D01*
X004405Y003645D01*
X004356Y003601D01*
X004305Y003560D01*
X004251Y003522D01*
X004195Y003487D01*
X004137Y003456D01*
X004077Y003429D01*
X004016Y003404D01*
X003953Y003384D01*
X003890Y003368D01*
X003825Y003355D01*
X003760Y003346D01*
X003694Y003341D01*
X003629Y003340D01*
X003563Y003343D01*
X003497Y003350D01*
X003432Y003361D01*
X003368Y003375D01*
X003305Y003394D01*
X003243Y003416D01*
X003183Y003442D01*
X003124Y003471D01*
X003067Y003504D01*
X003012Y003541D01*
X002959Y003580D01*
X002909Y003623D01*
X002861Y003668D01*
X002817Y003716D01*
X002775Y003767D01*
X002736Y003820D01*
X002701Y003876D01*
X002669Y003933D01*
X002640Y003993D01*
X002615Y004053D01*
X002594Y004116D01*
X002576Y004179D01*
X002563Y004244D01*
X002553Y004309D01*
X002547Y004374D01*
X002545Y004440D01*
X002495Y006690D02*
X001795Y006690D01*
X001778Y006692D01*
X001761Y006696D01*
X001745Y006703D01*
X001731Y006713D01*
X001718Y006726D01*
X001708Y006740D01*
X001701Y006756D01*
X001697Y006773D01*
X001695Y006790D01*
X001695Y006940D01*
X001745Y006990D01*
X001745Y008890D01*
X001695Y008940D01*
X001695Y009090D01*
X001697Y009107D01*
X001701Y009124D01*
X001708Y009140D01*
X001718Y009154D01*
X001731Y009167D01*
X001745Y009177D01*
X001761Y009184D01*
X001778Y009188D01*
X001795Y009190D01*
X002495Y009190D01*
X002512Y009188D01*
X002529Y009184D01*
X002545Y009177D01*
X002559Y009167D01*
X002572Y009154D01*
X002582Y009140D01*
X002589Y009124D01*
X002593Y009107D01*
X002595Y009090D01*
X002595Y008940D01*
X002545Y008890D01*
X002545Y006990D01*
X002595Y006940D01*
X002595Y006790D01*
X002593Y006773D01*
X002589Y006756D01*
X002582Y006740D01*
X002572Y006726D01*
X002559Y006713D01*
X002545Y006703D01*
X002529Y006696D01*
X002512Y006692D01*
X002495Y006690D01*
X004145Y007090D02*
X004145Y008790D01*
X004147Y008807D01*
X004151Y008824D01*
X004158Y008840D01*
X004168Y008854D01*
X004181Y008867D01*
X004195Y008877D01*
X004211Y008884D01*
X004228Y008888D01*
X004245Y008890D01*
X004345Y008890D01*
X004545Y008890D02*
X004745Y008890D01*
X004645Y008840D02*
X004645Y009040D01*
X004945Y008890D02*
X005045Y008890D01*
X005062Y008888D01*
X005079Y008884D01*
X005095Y008877D01*
X005109Y008867D01*
X005122Y008854D01*
X005132Y008840D01*
X005139Y008824D01*
X005143Y008807D01*
X005145Y008790D01*
X005145Y007090D01*
X005143Y007073D01*
X005139Y007056D01*
X005132Y007040D01*
X005122Y007026D01*
X005109Y007013D01*
X005095Y007003D01*
X005079Y006996D01*
X005062Y006992D01*
X005045Y006990D01*
X004245Y006990D01*
X004228Y006992D01*
X004211Y006996D01*
X004195Y007003D01*
X004181Y007013D01*
X004168Y007026D01*
X004158Y007040D01*
X004151Y007056D01*
X004147Y007073D01*
X004145Y007090D01*
X004645Y007790D02*
X004645Y007840D01*
X004645Y008040D02*
X004645Y008090D01*
X005695Y008940D02*
X005745Y008890D01*
X005745Y006990D01*
X005695Y006940D01*
X005695Y006790D01*
X005697Y006773D01*
X005701Y006756D01*
X005708Y006740D01*
X005718Y006726D01*
X005731Y006713D01*
X005745Y006703D01*
X005761Y006696D01*
X005778Y006692D01*
X005795Y006690D01*
X006495Y006690D01*
X006512Y006692D01*
X006529Y006696D01*
X006545Y006703D01*
X006559Y006713D01*
X006572Y006726D01*
X006582Y006740D01*
X006589Y006756D01*
X006593Y006773D01*
X006595Y006790D01*
X006595Y006940D01*
X006545Y006990D01*
X006545Y008890D01*
X006595Y008940D01*
X006595Y009090D01*
X006593Y009107D01*
X006589Y009124D01*
X006582Y009140D01*
X006572Y009154D01*
X006559Y009167D01*
X006545Y009177D01*
X006529Y009184D01*
X006512Y009188D01*
X006495Y009190D01*
X005795Y009190D01*
X005778Y009188D01*
X005761Y009184D01*
X005745Y009177D01*
X005731Y009167D01*
X005718Y009154D01*
X005708Y009140D01*
X005701Y009124D01*
X005697Y009107D01*
X005695Y009090D01*
X005695Y008940D01*
X005145Y009040D02*
X005145Y009790D01*
X005143Y009807D01*
X005139Y009824D01*
X005132Y009840D01*
X005122Y009854D01*
X005109Y009867D01*
X005095Y009877D01*
X005079Y009884D01*
X005062Y009888D01*
X005045Y009890D01*
X004245Y009890D01*
X004228Y009888D01*
X004211Y009884D01*
X004195Y009877D01*
X004181Y009867D01*
X004168Y009854D01*
X004158Y009840D01*
X004151Y009824D01*
X004147Y009807D01*
X004145Y009790D01*
X004145Y009040D01*
X003145Y010490D02*
X003195Y010540D01*
X005095Y010540D01*
X005145Y010490D01*
X005295Y010490D01*
X005312Y010492D01*
X005329Y010496D01*
X005345Y010503D01*
X005359Y010513D01*
X005372Y010526D01*
X005382Y010540D01*
X005389Y010556D01*
X005393Y010573D01*
X005395Y010590D01*
X005395Y011290D01*
X005393Y011307D01*
X005389Y011324D01*
X005382Y011340D01*
X005372Y011354D01*
X005359Y011367D01*
X005345Y011377D01*
X005329Y011384D01*
X005312Y011388D01*
X005295Y011390D01*
X005145Y011390D01*
X005095Y011340D01*
X003195Y011340D01*
X003145Y011390D01*
X002995Y011390D01*
X002978Y011388D01*
X002961Y011384D01*
X002945Y011377D01*
X002931Y011367D01*
X002918Y011354D01*
X002908Y011340D01*
X002901Y011324D01*
X002897Y011307D01*
X002895Y011290D01*
X002895Y010590D01*
X002897Y010573D01*
X002901Y010556D01*
X002908Y010540D01*
X002918Y010526D01*
X002931Y010513D01*
X002945Y010503D01*
X002961Y010496D01*
X002978Y010492D01*
X002995Y010490D01*
X003145Y010490D01*
X005495Y012990D02*
X005645Y012990D01*
X005695Y013040D01*
X007595Y013040D01*
X007645Y012990D01*
X007795Y012990D01*
X007812Y012992D01*
X007829Y012996D01*
X007845Y013003D01*
X007859Y013013D01*
X007872Y013026D01*
X007882Y013040D01*
X007889Y013056D01*
X007893Y013073D01*
X007895Y013090D01*
X007895Y013790D01*
X007893Y013807D01*
X007889Y013824D01*
X007882Y013840D01*
X007872Y013854D01*
X007859Y013867D01*
X007845Y013877D01*
X007829Y013884D01*
X007812Y013888D01*
X007795Y013890D01*
X007645Y013890D01*
X007595Y013840D01*
X005695Y013840D01*
X005645Y013890D01*
X005495Y013890D01*
X005478Y013888D01*
X005461Y013884D01*
X005445Y013877D01*
X005431Y013867D01*
X005418Y013854D01*
X005408Y013840D01*
X005401Y013824D01*
X005397Y013807D01*
X005395Y013790D01*
X005395Y013090D01*
X005397Y013073D01*
X005401Y013056D01*
X005408Y013040D01*
X005418Y013026D01*
X005431Y013013D01*
X005445Y013003D01*
X005461Y012996D01*
X005478Y012992D01*
X005495Y012990D01*
X006895Y012290D02*
X006895Y011590D01*
X006897Y011573D01*
X006901Y011556D01*
X006908Y011540D01*
X006918Y011526D01*
X006931Y011513D01*
X006945Y011503D01*
X006961Y011496D01*
X006978Y011492D01*
X006995Y011490D01*
X007145Y011490D01*
X007195Y011540D01*
X009095Y011540D01*
X009145Y011490D01*
X009295Y011490D01*
X009312Y011492D01*
X009329Y011496D01*
X009345Y011503D01*
X009359Y011513D01*
X009372Y011526D01*
X009382Y011540D01*
X009389Y011556D01*
X009393Y011573D01*
X009395Y011590D01*
X009395Y012290D01*
X009393Y012307D01*
X009389Y012324D01*
X009382Y012340D01*
X009372Y012354D01*
X009359Y012367D01*
X009345Y012377D01*
X009329Y012384D01*
X009312Y012388D01*
X009295Y012390D01*
X009145Y012390D01*
X009095Y012340D01*
X007195Y012340D01*
X007145Y012390D01*
X006995Y012390D01*
X006978Y012388D01*
X006961Y012384D01*
X006945Y012377D01*
X006931Y012367D01*
X006918Y012354D01*
X006908Y012340D01*
X006901Y012324D01*
X006897Y012307D01*
X006895Y012290D01*
X010745Y010740D02*
X010745Y010140D01*
X010747Y010123D01*
X010751Y010106D01*
X010758Y010090D01*
X010768Y010076D01*
X010781Y010063D01*
X010795Y010053D01*
X010811Y010046D01*
X010828Y010042D01*
X010845Y010040D01*
X012445Y010040D01*
X012462Y010042D01*
X012479Y010046D01*
X012495Y010053D01*
X012509Y010063D01*
X012522Y010076D01*
X012532Y010090D01*
X012539Y010106D01*
X012543Y010123D01*
X012545Y010140D01*
X012545Y010740D01*
X012543Y010757D01*
X012539Y010774D01*
X012532Y010790D01*
X012522Y010804D01*
X012509Y010817D01*
X012495Y010827D01*
X012479Y010834D01*
X012462Y010838D01*
X012445Y010840D01*
X010845Y010840D01*
X010828Y010838D01*
X010811Y010834D01*
X010795Y010827D01*
X010781Y010817D01*
X010768Y010804D01*
X010758Y010790D01*
X010751Y010774D01*
X010747Y010757D01*
X010745Y010740D01*
X011045Y010440D02*
X011645Y010440D01*
X011645Y010690D01*
X011645Y010440D02*
X011645Y010190D01*
X011645Y010440D02*
X011245Y010190D01*
X011245Y010690D01*
X011645Y010440D01*
X011895Y010440D01*
X011645Y009090D02*
X011645Y006790D01*
X007645Y006790D01*
X007645Y007540D01*
X007684Y007542D01*
X007723Y007548D01*
X007761Y007557D01*
X007798Y007570D01*
X007834Y007587D01*
X007867Y007607D01*
X007899Y007631D01*
X007928Y007657D01*
X007954Y007686D01*
X007978Y007718D01*
X007998Y007751D01*
X008015Y007787D01*
X008028Y007824D01*
X008037Y007862D01*
X008043Y007901D01*
X008045Y007940D01*
X008043Y007979D01*
X008037Y008018D01*
X008028Y008056D01*
X008015Y008093D01*
X007998Y008129D01*
X007978Y008162D01*
X007954Y008194D01*
X007928Y008223D01*
X007899Y008249D01*
X007867Y008273D01*
X007834Y008293D01*
X007798Y008310D01*
X007761Y008323D01*
X007723Y008332D01*
X007684Y008338D01*
X007645Y008340D01*
X007645Y009090D01*
X011645Y009090D01*
X014055Y009050D02*
X014265Y008840D01*
X014475Y009050D01*
X014265Y009260D02*
X014055Y009050D01*
X013845Y010440D02*
X013847Y010524D01*
X013853Y010609D01*
X013863Y010692D01*
X013877Y010776D01*
X013894Y010858D01*
X013916Y010940D01*
X013941Y011020D01*
X013970Y011099D01*
X014003Y011177D01*
X014039Y011253D01*
X014079Y011328D01*
X014123Y011400D01*
X014169Y011471D01*
X014219Y011539D01*
X014272Y011604D01*
X014328Y011667D01*
X014387Y011728D01*
X014449Y011785D01*
X014513Y011840D01*
X014580Y011891D01*
X014649Y011940D01*
X014721Y011985D01*
X014794Y012026D01*
X014869Y012064D01*
X014946Y012099D01*
X015025Y012130D01*
X015105Y012157D01*
X015186Y012180D01*
X015268Y012200D01*
X015351Y012216D01*
X015434Y012228D01*
X015519Y012236D01*
X015603Y012240D01*
X015687Y012240D01*
X015771Y012236D01*
X015856Y012228D01*
X015939Y012216D01*
X016022Y012200D01*
X016104Y012180D01*
X016185Y012157D01*
X016265Y012130D01*
X016344Y012099D01*
X016421Y012064D01*
X016496Y012026D01*
X016569Y011985D01*
X016641Y011940D01*
X016710Y011891D01*
X016777Y011840D01*
X016841Y011785D01*
X016903Y011728D01*
X016962Y011667D01*
X017018Y011604D01*
X017071Y011539D01*
X017121Y011471D01*
X017167Y011400D01*
X017211Y011328D01*
X017251Y011253D01*
X017287Y011177D01*
X017320Y011099D01*
X017349Y011020D01*
X017374Y010940D01*
X017396Y010858D01*
X017413Y010776D01*
X017427Y010692D01*
X017437Y010609D01*
X017443Y010524D01*
X017445Y010440D01*
X017443Y010356D01*
X017437Y010271D01*
X017427Y010188D01*
X017413Y010104D01*
X017396Y010022D01*
X017374Y009940D01*
X017349Y009860D01*
X017320Y009781D01*
X017287Y009703D01*
X017251Y009627D01*
X017211Y009552D01*
X017167Y009480D01*
X017121Y009409D01*
X017071Y009341D01*
X017018Y009276D01*
X016962Y009213D01*
X016903Y009152D01*
X016841Y009095D01*
X016777Y009040D01*
X016710Y008989D01*
X016641Y008940D01*
X016569Y008895D01*
X016496Y008854D01*
X016421Y008816D01*
X016344Y008781D01*
X016265Y008750D01*
X016185Y008723D01*
X016104Y008700D01*
X016022Y008680D01*
X015939Y008664D01*
X015856Y008652D01*
X015771Y008644D01*
X015687Y008640D01*
X015603Y008640D01*
X015519Y008644D01*
X015434Y008652D01*
X015351Y008664D01*
X015268Y008680D01*
X015186Y008700D01*
X015105Y008723D01*
X015025Y008750D01*
X014946Y008781D01*
X014869Y008816D01*
X014794Y008854D01*
X014721Y008895D01*
X014649Y008940D01*
X014580Y008989D01*
X014513Y009040D01*
X014449Y009095D01*
X014387Y009152D01*
X014328Y009213D01*
X014272Y009276D01*
X014219Y009341D01*
X014169Y009409D01*
X014123Y009480D01*
X014079Y009552D01*
X014039Y009627D01*
X014003Y009703D01*
X013970Y009781D01*
X013941Y009860D01*
X013916Y009940D01*
X013894Y010022D01*
X013877Y010104D01*
X013863Y010188D01*
X013853Y010271D01*
X013847Y010356D01*
X013845Y010440D01*
X016595Y009440D02*
X017295Y009440D01*
X018995Y009440D01*
X019545Y009440D01*
X019545Y005440D01*
X018995Y005440D01*
X017295Y005440D01*
X017295Y009440D01*
X016595Y009440D02*
X016595Y005440D01*
X016945Y005440D01*
X017295Y005440D01*
X017345Y005240D01*
X016895Y005240D01*
X016945Y005440D01*
X017645Y004690D02*
X017645Y004190D01*
X017895Y003940D01*
X017645Y003690D01*
X017645Y003190D01*
X017895Y002940D01*
X018395Y002940D01*
X018645Y003190D01*
X018645Y003690D01*
X018395Y003940D01*
X017895Y003940D01*
X018395Y003940D02*
X018645Y004190D01*
X018645Y004690D01*
X018395Y004940D01*
X017895Y004940D01*
X017645Y004690D01*
X018995Y005440D02*
X018995Y009440D01*
X019963Y008684D02*
X020390Y008684D01*
X020176Y008897D02*
X020176Y008470D01*
X020082Y006790D02*
X020082Y006363D01*
X016745Y006450D02*
X016747Y006478D01*
X016753Y006505D01*
X016762Y006531D01*
X016775Y006556D01*
X016792Y006579D01*
X016811Y006599D01*
X016833Y006616D01*
X016857Y006630D01*
X016883Y006640D01*
X016910Y006647D01*
X016938Y006650D01*
X016966Y006649D01*
X016993Y006644D01*
X017020Y006635D01*
X017045Y006623D01*
X017068Y006608D01*
X017089Y006589D01*
X017107Y006568D01*
X017122Y006544D01*
X017133Y006518D01*
X017141Y006492D01*
X017145Y006464D01*
X017145Y006436D01*
X017141Y006408D01*
X017133Y006382D01*
X017122Y006356D01*
X017107Y006332D01*
X017089Y006311D01*
X017068Y006292D01*
X017045Y006277D01*
X017020Y006265D01*
X016993Y006256D01*
X016966Y006251D01*
X016938Y006250D01*
X016910Y006253D01*
X016883Y006260D01*
X016857Y006270D01*
X016833Y006284D01*
X016811Y006301D01*
X016792Y006321D01*
X016775Y006344D01*
X016762Y006369D01*
X016753Y006395D01*
X016747Y006422D01*
X016745Y006450D01*
X016745Y008430D02*
X016747Y008458D01*
X016753Y008485D01*
X016762Y008511D01*
X016775Y008536D01*
X016792Y008559D01*
X016811Y008579D01*
X016833Y008596D01*
X016857Y008610D01*
X016883Y008620D01*
X016910Y008627D01*
X016938Y008630D01*
X016966Y008629D01*
X016993Y008624D01*
X017020Y008615D01*
X017045Y008603D01*
X017068Y008588D01*
X017089Y008569D01*
X017107Y008548D01*
X017122Y008524D01*
X017133Y008498D01*
X017141Y008472D01*
X017145Y008444D01*
X017145Y008416D01*
X017141Y008388D01*
X017133Y008362D01*
X017122Y008336D01*
X017107Y008312D01*
X017089Y008291D01*
X017068Y008272D01*
X017045Y008257D01*
X017020Y008245D01*
X016993Y008236D01*
X016966Y008231D01*
X016938Y008230D01*
X016910Y008233D01*
X016883Y008240D01*
X016857Y008250D01*
X016833Y008264D01*
X016811Y008281D01*
X016792Y008301D01*
X016775Y008324D01*
X016762Y008349D01*
X016753Y008375D01*
X016747Y008402D01*
X016745Y008430D01*
X017895Y011440D02*
X017645Y011690D01*
X017645Y012190D01*
X017895Y012440D01*
X017645Y012690D01*
X017645Y013190D01*
X017895Y013440D01*
X018395Y013440D01*
X018645Y013190D01*
X018645Y012690D01*
X018395Y012440D01*
X018645Y012190D01*
X018645Y011690D01*
X018395Y011440D01*
X017895Y011440D01*
X018963Y011684D02*
X019390Y011684D01*
X019176Y011897D02*
X019176Y011470D01*
X018395Y012440D02*
X017895Y012440D01*
X019082Y012863D02*
X019082Y013290D01*
X009395Y005290D02*
X009395Y004590D01*
X009393Y004573D01*
X009389Y004556D01*
X009382Y004540D01*
X009372Y004526D01*
X009359Y004513D01*
X009345Y004503D01*
X009329Y004496D01*
X009312Y004492D01*
X009295Y004490D01*
X009145Y004490D01*
X009095Y004540D01*
X007195Y004540D01*
X007145Y004490D01*
X006995Y004490D01*
X006978Y004492D01*
X006961Y004496D01*
X006945Y004503D01*
X006931Y004513D01*
X006918Y004526D01*
X006908Y004540D01*
X006901Y004556D01*
X006897Y004573D01*
X006895Y004590D01*
X006895Y005290D01*
X006897Y005307D01*
X006901Y005324D01*
X006908Y005340D01*
X006918Y005354D01*
X006931Y005367D01*
X006945Y005377D01*
X006961Y005384D01*
X006978Y005388D01*
X006995Y005390D01*
X007145Y005390D01*
X007195Y005340D01*
X009095Y005340D01*
X009145Y005390D01*
X009295Y005390D01*
X009312Y005388D01*
X009329Y005384D01*
X009345Y005377D01*
X009359Y005367D01*
X009372Y005354D01*
X009382Y005340D01*
X009389Y005324D01*
X009393Y005307D01*
X009395Y005290D01*
X009295Y004390D02*
X009145Y004390D01*
X009095Y004340D01*
X007195Y004340D01*
X007145Y004390D01*
X006995Y004390D01*
X006978Y004388D01*
X006961Y004384D01*
X006945Y004377D01*
X006931Y004367D01*
X006918Y004354D01*
X006908Y004340D01*
X006901Y004324D01*
X006897Y004307D01*
X006895Y004290D01*
X006895Y003590D01*
X006897Y003573D01*
X006901Y003556D01*
X006908Y003540D01*
X006918Y003526D01*
X006931Y003513D01*
X006945Y003503D01*
X006961Y003496D01*
X006978Y003492D01*
X006995Y003490D01*
X007145Y003490D01*
X007195Y003540D01*
X009095Y003540D01*
X009145Y003490D01*
X009295Y003490D01*
X009312Y003492D01*
X009329Y003496D01*
X009345Y003503D01*
X009359Y003513D01*
X009372Y003526D01*
X009382Y003540D01*
X009389Y003556D01*
X009393Y003573D01*
X009395Y003590D01*
X009395Y004290D01*
X009393Y004307D01*
X009389Y004324D01*
X009382Y004340D01*
X009372Y004354D01*
X009359Y004367D01*
X009345Y004377D01*
X009329Y004384D01*
X009312Y004388D01*
X009295Y004390D01*
X012995Y003790D02*
X013145Y003790D01*
X013145Y003940D01*
X013145Y003790D02*
X013295Y003790D01*
X013145Y003790D02*
X013145Y003640D01*
X012545Y004440D02*
X012547Y004506D01*
X012553Y004571D01*
X012563Y004636D01*
X012576Y004701D01*
X012594Y004764D01*
X012615Y004827D01*
X012640Y004887D01*
X012669Y004947D01*
X012701Y005004D01*
X012736Y005060D01*
X012775Y005113D01*
X012817Y005164D01*
X012861Y005212D01*
X012909Y005257D01*
X012959Y005300D01*
X013012Y005339D01*
X013067Y005376D01*
X013124Y005409D01*
X013183Y005438D01*
X013243Y005464D01*
X013305Y005486D01*
X013368Y005505D01*
X013432Y005519D01*
X013497Y005530D01*
X013563Y005537D01*
X013629Y005540D01*
X013694Y005539D01*
X013760Y005534D01*
X013825Y005525D01*
X013890Y005512D01*
X013953Y005496D01*
X014016Y005476D01*
X014077Y005451D01*
X014137Y005424D01*
X014195Y005393D01*
X014251Y005358D01*
X014305Y005320D01*
X014356Y005279D01*
X014405Y005235D01*
X014451Y005188D01*
X014495Y005139D01*
X014535Y005087D01*
X014572Y005032D01*
X014606Y004976D01*
X014636Y004917D01*
X014663Y004857D01*
X014686Y004796D01*
X014705Y004733D01*
X014721Y004669D01*
X014733Y004604D01*
X014741Y004539D01*
X014745Y004473D01*
X014745Y004407D01*
X014741Y004341D01*
X014733Y004276D01*
X014721Y004211D01*
X014705Y004147D01*
X014686Y004084D01*
X014663Y004023D01*
X014636Y003963D01*
X014606Y003904D01*
X014572Y003848D01*
X014535Y003793D01*
X014495Y003741D01*
X014451Y003692D01*
X014405Y003645D01*
X014356Y003601D01*
X014305Y003560D01*
X014251Y003522D01*
X014195Y003487D01*
X014137Y003456D01*
X014077Y003429D01*
X014016Y003404D01*
X013953Y003384D01*
X013890Y003368D01*
X013825Y003355D01*
X013760Y003346D01*
X013694Y003341D01*
X013629Y003340D01*
X013563Y003343D01*
X013497Y003350D01*
X013432Y003361D01*
X013368Y003375D01*
X013305Y003394D01*
X013243Y003416D01*
X013183Y003442D01*
X013124Y003471D01*
X013067Y003504D01*
X013012Y003541D01*
X012959Y003580D01*
X012909Y003623D01*
X012861Y003668D01*
X012817Y003716D01*
X012775Y003767D01*
X012736Y003820D01*
X012701Y003876D01*
X012669Y003933D01*
X012640Y003993D01*
X012615Y004053D01*
X012594Y004116D01*
X012576Y004179D01*
X012563Y004244D01*
X012553Y004309D01*
X012547Y004374D01*
X012545Y004440D01*
D11*
X012645Y005515D02*
X012945Y005515D01*
X013020Y005590D01*
X013020Y005740D01*
X012945Y005815D01*
X013020Y005975D02*
X012720Y006275D01*
X012645Y006275D01*
X012570Y006200D01*
X012570Y006050D01*
X012645Y005975D01*
X012645Y005815D02*
X012570Y005740D01*
X012570Y005590D01*
X012645Y005515D01*
X013020Y005975D02*
X013020Y006275D01*
X016780Y005828D02*
X017120Y005828D01*
X017120Y005715D02*
X017120Y005941D01*
X016893Y005715D02*
X016780Y005828D01*
X018890Y004759D02*
X018890Y004609D01*
X018965Y004534D01*
X018965Y004374D02*
X019115Y004374D01*
X019190Y004299D01*
X019190Y004074D01*
X019340Y004074D02*
X018890Y004074D01*
X018890Y004299D01*
X018965Y004374D01*
X019340Y004534D02*
X019040Y004834D01*
X018965Y004834D01*
X018890Y004759D01*
X019340Y004834D02*
X019340Y004534D01*
X019265Y003839D02*
X018890Y003839D01*
X018890Y003764D02*
X018890Y003914D01*
X019265Y003839D02*
X019340Y003764D01*
X019340Y003689D01*
X019265Y003613D01*
X017120Y007715D02*
X016893Y007941D01*
X016837Y007941D01*
X016780Y007885D01*
X016780Y007771D01*
X016837Y007715D01*
X017120Y007715D02*
X017120Y007941D01*
X017325Y011435D02*
X017400Y011510D01*
X017400Y011585D01*
X017325Y011660D01*
X016950Y011660D01*
X016950Y011585D02*
X016950Y011735D01*
X016950Y011895D02*
X016950Y012120D01*
X017025Y012195D01*
X017175Y012195D01*
X017250Y012120D01*
X017250Y011895D01*
X017400Y011895D02*
X016950Y011895D01*
X017100Y012355D02*
X016950Y012506D01*
X017400Y012506D01*
X017400Y012656D02*
X017400Y012355D01*
X015431Y012465D02*
X015131Y012465D01*
X015281Y012465D02*
X015281Y012915D01*
X015131Y012765D01*
X014970Y012840D02*
X014970Y012540D01*
X014895Y012465D01*
X014745Y012465D01*
X014670Y012540D01*
X014670Y012840D01*
X014745Y012915D01*
X014895Y012915D01*
X014970Y012840D01*
X014820Y012615D02*
X014970Y012465D01*
X012260Y009915D02*
X012260Y009465D01*
X012110Y009465D02*
X012410Y009465D01*
X011950Y009540D02*
X011950Y009840D01*
X011875Y009915D01*
X011649Y009915D01*
X011649Y009465D01*
X011875Y009465D01*
X011950Y009540D01*
X012110Y009765D02*
X012260Y009915D01*
X008731Y012640D02*
X008656Y012565D01*
X008506Y012565D01*
X008431Y012640D01*
X008431Y012790D02*
X008581Y012865D01*
X008656Y012865D01*
X008731Y012790D01*
X008731Y012640D01*
X008431Y012790D02*
X008431Y013015D01*
X008731Y013015D01*
X008270Y012940D02*
X008270Y012790D01*
X008195Y012715D01*
X007970Y012715D01*
X008120Y012715D02*
X008270Y012565D01*
X007970Y012565D02*
X007970Y013015D01*
X008195Y013015D01*
X008270Y012940D01*
X006931Y014065D02*
X006931Y014140D01*
X007231Y014440D01*
X007231Y014515D01*
X006931Y014515D01*
X006770Y014440D02*
X006770Y014290D01*
X006695Y014215D01*
X006470Y014215D01*
X006620Y014215D02*
X006770Y014065D01*
X006470Y014065D02*
X006470Y014515D01*
X006695Y014515D01*
X006770Y014440D01*
X003656Y012015D02*
X003431Y011790D01*
X003731Y011790D01*
X003656Y011565D02*
X003656Y012015D01*
X003270Y011940D02*
X003270Y011790D01*
X003195Y011715D01*
X002970Y011715D01*
X003120Y011715D02*
X003270Y011565D01*
X002970Y011565D02*
X002970Y012015D01*
X003195Y012015D01*
X003270Y011940D01*
X003145Y009004D02*
X003220Y008929D01*
X003220Y008779D01*
X003145Y008704D01*
X003220Y008544D02*
X003070Y008394D01*
X003070Y008469D02*
X003070Y008244D01*
X003220Y008244D02*
X002770Y008244D01*
X002770Y008469D01*
X002845Y008544D01*
X002995Y008544D01*
X003070Y008469D01*
X002845Y008704D02*
X002770Y008779D01*
X002770Y008929D01*
X002845Y009004D01*
X002920Y009004D01*
X002995Y008929D01*
X003070Y009004D01*
X003145Y009004D01*
X002995Y008929D02*
X002995Y008854D01*
X003595Y007875D02*
X003670Y007875D01*
X003745Y007800D01*
X003820Y007875D01*
X003895Y007875D01*
X003970Y007800D01*
X003970Y007650D01*
X003895Y007575D01*
X003895Y007415D02*
X003970Y007340D01*
X003970Y007190D01*
X003895Y007115D01*
X003595Y007115D01*
X003520Y007190D01*
X003520Y007340D01*
X003595Y007415D01*
X003595Y007575D02*
X003520Y007650D01*
X003520Y007800D01*
X003595Y007875D01*
X003745Y007800D02*
X003745Y007725D01*
X005070Y007525D02*
X005145Y007375D01*
X005295Y007225D01*
X005295Y007450D01*
X005370Y007525D01*
X005445Y007525D01*
X005520Y007450D01*
X005520Y007300D01*
X005445Y007225D01*
X005295Y007225D01*
X005295Y007065D02*
X005370Y006990D01*
X005370Y006765D01*
X005370Y006915D02*
X005520Y007065D01*
X005295Y007065D02*
X005145Y007065D01*
X005070Y006990D01*
X005070Y006765D01*
X005520Y006765D01*
X006970Y006015D02*
X007195Y006015D01*
X007270Y005940D01*
X007270Y005790D01*
X007195Y005715D01*
X006970Y005715D01*
X007120Y005715D02*
X007270Y005565D01*
X007431Y005565D02*
X007731Y005865D01*
X007731Y005940D01*
X007656Y006015D01*
X007506Y006015D01*
X007431Y005940D01*
X007431Y005565D02*
X007731Y005565D01*
X006970Y005565D02*
X006970Y006015D01*
X007070Y006815D02*
X007070Y006965D01*
X007070Y006890D02*
X007520Y006890D01*
X007520Y006815D02*
X007520Y006965D01*
X007445Y007122D02*
X007145Y007122D01*
X007070Y007197D01*
X007070Y007347D01*
X007145Y007422D01*
X007220Y007582D02*
X007070Y007732D01*
X007520Y007732D01*
X007520Y007582D02*
X007520Y007882D01*
X007445Y007422D02*
X007520Y007347D01*
X007520Y007197D01*
X007445Y007122D01*
X003020Y006275D02*
X003020Y005975D01*
X003020Y006125D02*
X002570Y006125D01*
X002720Y005975D01*
X002645Y005815D02*
X002570Y005740D01*
X002570Y005590D01*
X002645Y005515D01*
X002945Y005515D01*
X003020Y005590D01*
X003020Y005740D01*
X002945Y005815D01*
X008449Y003315D02*
X008449Y002865D01*
X008449Y003015D02*
X008675Y003015D01*
X008750Y003090D01*
X008750Y003240D01*
X008675Y003315D01*
X008449Y003315D01*
X008600Y003015D02*
X008750Y002865D01*
X008910Y002865D02*
X009210Y002865D01*
X009060Y002865D02*
X009060Y003315D01*
X008910Y003165D01*
D12*
X009565Y003940D03*
X009565Y004940D03*
X006725Y004940D03*
X006725Y003940D03*
X005565Y010940D03*
X006725Y011940D03*
X008065Y013440D03*
X009565Y011940D03*
X005225Y013440D03*
X002725Y010940D03*
D13*
X002145Y009360D03*
X002145Y006520D03*
X006145Y006520D03*
X006145Y009360D03*
D14*
X012295Y010440D03*
D15*
X012670Y010440D03*
X010620Y010440D03*
D16*
X014125Y010440D02*
X014127Y010518D01*
X014133Y010595D01*
X014143Y010672D01*
X014157Y010748D01*
X014174Y010824D01*
X014196Y010899D01*
X014221Y010972D01*
X014250Y011044D01*
X014283Y011114D01*
X014319Y011183D01*
X014359Y011250D01*
X014402Y011314D01*
X014448Y011377D01*
X014497Y011437D01*
X014550Y011494D01*
X014605Y011549D01*
X014663Y011600D01*
X014724Y011649D01*
X014786Y011694D01*
X014852Y011737D01*
X014919Y011775D01*
X014988Y011811D01*
X015059Y011842D01*
X015131Y011871D01*
X015205Y011895D01*
X015280Y011915D01*
X015356Y011932D01*
X015432Y011945D01*
X015509Y011954D01*
X015587Y011959D01*
X015664Y011960D01*
X015742Y011957D01*
X015819Y011950D01*
X015896Y011939D01*
X015972Y011924D01*
X016048Y011906D01*
X016122Y011883D01*
X016195Y011857D01*
X016267Y011827D01*
X016337Y011793D01*
X016405Y011756D01*
X016471Y011716D01*
X016535Y011672D01*
X016597Y011625D01*
X016656Y011575D01*
X016713Y011522D01*
X016767Y011466D01*
X016818Y011407D01*
X016866Y011346D01*
X016910Y011282D01*
X016952Y011217D01*
X016990Y011149D01*
X017024Y011079D01*
X017055Y011008D01*
X017082Y010935D01*
X017105Y010861D01*
X017125Y010786D01*
X017141Y010710D01*
X017153Y010634D01*
X017161Y010556D01*
X017165Y010479D01*
X017165Y010401D01*
X017161Y010324D01*
X017153Y010246D01*
X017141Y010170D01*
X017125Y010094D01*
X017105Y010019D01*
X017082Y009945D01*
X017055Y009872D01*
X017024Y009801D01*
X016990Y009731D01*
X016952Y009663D01*
X016910Y009598D01*
X016866Y009534D01*
X016818Y009473D01*
X016767Y009414D01*
X016713Y009358D01*
X016656Y009305D01*
X016597Y009255D01*
X016535Y009208D01*
X016471Y009164D01*
X016405Y009124D01*
X016337Y009087D01*
X016267Y009053D01*
X016195Y009023D01*
X016122Y008997D01*
X016048Y008974D01*
X015972Y008956D01*
X015896Y008941D01*
X015819Y008930D01*
X015742Y008923D01*
X015664Y008920D01*
X015587Y008921D01*
X015509Y008926D01*
X015432Y008935D01*
X015356Y008948D01*
X015280Y008965D01*
X015205Y008985D01*
X015131Y009009D01*
X015059Y009038D01*
X014988Y009069D01*
X014919Y009105D01*
X014852Y009143D01*
X014786Y009186D01*
X014724Y009231D01*
X014663Y009280D01*
X014605Y009331D01*
X014550Y009386D01*
X014497Y009443D01*
X014448Y009503D01*
X014402Y009566D01*
X014359Y009630D01*
X014319Y009697D01*
X014283Y009766D01*
X014250Y009836D01*
X014221Y009908D01*
X014196Y009981D01*
X014174Y010056D01*
X014157Y010132D01*
X014143Y010208D01*
X014133Y010285D01*
X014127Y010362D01*
X014125Y010440D01*
D17*
X004945Y008040D02*
X004645Y008040D01*
X004345Y008040D01*
X004345Y007840D02*
X004645Y007840D01*
X004945Y007840D01*
D18*
X018145Y007440D03*
D19*
X016360Y006540D02*
X016360Y006119D01*
X016360Y006329D02*
X015730Y006329D01*
X015940Y006119D01*
X015730Y005895D02*
X016360Y005475D01*
X016360Y005895D02*
X015730Y005475D01*
M02*
