G75*
%MOIN*%
%OFA0B0*%
%FSLAX24Y24*%
%IPPOS*%
%LPD*%
%AMOC8*
5,1,8,0,0,1.08239X$1,22.5*
%
%ADD10C,0.0600*%
%ADD11OC8,0.0600*%
%ADD12C,0.0600*%
%ADD13OC8,0.0710*%
%ADD14C,0.0710*%
%ADD15C,0.0680*%
%ADD16C,0.0860*%
D10*
X008145Y006440D03*
X009145Y006440D03*
X010145Y006440D03*
X011145Y006440D03*
X011145Y009440D03*
X010145Y009440D03*
X009145Y009440D03*
X008145Y009440D03*
D11*
X006145Y009940D03*
X006145Y010940D03*
X006145Y011940D03*
X004645Y013440D03*
X002145Y010940D03*
X002145Y009940D03*
X004645Y009440D03*
X004645Y008440D03*
X004645Y007440D03*
X006145Y005940D03*
X006145Y004940D03*
X006145Y003940D03*
X010145Y003940D03*
X010145Y004940D03*
X015645Y009440D03*
X016645Y010440D03*
X015645Y011440D03*
X010145Y011940D03*
X008645Y013440D03*
X002145Y005940D03*
D12*
X009885Y010440D02*
X010405Y010440D01*
X012885Y010440D02*
X013405Y010440D01*
D13*
X013645Y004940D03*
X003645Y004940D03*
D14*
X003645Y003940D03*
X013645Y003940D03*
D15*
X017845Y004440D02*
X018445Y004440D01*
X018445Y003440D02*
X017845Y003440D01*
X017845Y011940D02*
X018445Y011940D01*
X018445Y012940D02*
X017845Y012940D01*
D16*
X017755Y008430D02*
X018535Y008430D01*
X018535Y006450D02*
X017755Y006450D01*
M02*
