%
M48
M72
T01C0.0320
T02C0.0400
T03C0.0520
%
T01
X008145Y006440
X009145Y006440
X009145Y009440
X008145Y009440
X010145Y006440
X011145Y006440
X010145Y009440
X011145Y009440
X010145Y003940
X006145Y003940
X006145Y004940
X010145Y004940
X002145Y009940
X002145Y005940
X002145Y010940
X006145Y010940
X006145Y005940
X006145Y009940
X006145Y011940
X010145Y011940
X013145Y010440
X010145Y010440
X015645Y009440
X016645Y010440
X015645Y011440
X004645Y013440
X008645Y013440
X004645Y007440
X004645Y009440
X004645Y008440
X013645Y004940
X013645Y003940
X003645Y004940
X003645Y003940
T02
X018145Y011940
X018145Y012940
X018145Y004440
X018145Y003440
T03
X018145Y006450
X018145Y008430
M30
