M48
;DRILL file {KiCad 4.0.7-e2-6376~58~ubuntu16.04.1} date Mon Oct 16 16:22:07 2017
;FORMAT={-:-/ absolute / inch / decimal}
FMAT,2
INCH,TZ
T1C0.020
T2C0.030
T3C0.032
T4C0.039
T5C0.051
T6C0.053
T7C0.126
%
G90
G05
M72
T1
X5.2793Y-2.8737
X5.2793Y-4.4485
X5.3069Y-2.8068
X5.3069Y-2.9405
X5.3069Y-4.3817
X5.3069Y-4.5153
X5.3737Y-2.7792
X5.3737Y-2.9681
X5.3737Y-4.354
X5.3737Y-4.543
X5.4406Y-2.8068
X5.4406Y-2.9405
X5.4406Y-4.3817
X5.4406Y-4.5153
X5.4682Y-2.8737
X5.4682Y-4.4485
X7.6415Y-2.8737
X7.6415Y-4.4485
X7.6691Y-2.8068
X7.6691Y-2.9405
X7.6691Y-4.3817
X7.6691Y-4.5153
X7.736Y-2.7792
X7.736Y-2.9681
X7.736Y-4.354
X7.736Y-4.543
X7.8028Y-2.8068
X7.8028Y-2.9405
X7.8028Y-4.3817
X7.8028Y-4.5153
X7.8304Y-2.8737
X7.8304Y-4.4485
T2
X4.3956Y-3.6535
X4.5206Y-3.5535
X4.5206Y-3.7535
X4.9207Y-3.3041
X4.9207Y-3.501
X4.9207Y-3.6041
X4.9207Y-3.8041
X4.9207Y-4.1041
X5.0457Y-3.8041
X5.0457Y-4.1041
X5.1707Y-3.9041
X5.1707Y-4.2041
X5.2207Y-3.6041
X6.0208Y-3.7294
X6.3208Y-3.7294
X6.5207Y-2.7791
X6.5207Y-2.8791
X6.5207Y-2.9791
X6.5207Y-3.0791
X6.6207Y-2.7791
X6.6207Y-2.8791
X6.6207Y-2.9791
X6.6207Y-3.0791
X6.7207Y-2.7791
X6.7207Y-2.8791
X6.7207Y-2.9791
X6.7207Y-3.0791
X6.9207Y-2.7791
X6.9207Y-3.2791
X7.0207Y-2.9791
X7.0707Y-2.8541
X7.1707Y-2.8541
X7.2207Y-2.9791
T3
X5.8207Y-3.4041
X5.8207Y-4.0041
X5.9207Y-3.4041
X5.9207Y-4.0041
X6.0207Y-3.4041
X6.0207Y-4.0041
X6.1207Y-3.4041
X6.1207Y-4.0041
X6.2207Y-3.4041
X6.2207Y-4.0041
X6.3207Y-3.4041
X6.3207Y-4.0041
X6.4207Y-3.4041
X6.4207Y-4.0041
X6.5207Y-3.4041
X6.5207Y-4.0041
X6.6207Y-3.4041
X6.6207Y-4.0041
X6.7207Y-3.4041
X6.7207Y-4.0041
X6.8207Y-3.4041
X6.8207Y-4.0041
X6.9207Y-3.4041
X6.9207Y-4.0041
X7.0207Y-3.4041
X7.0207Y-4.0041
X7.1207Y-3.4041
X7.1207Y-4.0041
X7.2207Y-3.4041
X7.2207Y-4.0041
T4
X5.3207Y-3.4041
X5.3207Y-3.5041
X5.3207Y-3.6041
X5.3207Y-3.8041
X5.3207Y-3.9041
X5.3207Y-4.0041
X5.6207Y-3.4041
X5.6207Y-3.5041
X5.6207Y-3.6041
X5.6207Y-3.8041
X5.6207Y-3.9041
X5.6207Y-4.0041
X5.7207Y-3.2041
X5.7207Y-4.2291
X5.7207Y-4.3291
X5.7207Y-4.4291
X5.8207Y-3.2041
X5.8707Y-4.5291
X5.9106Y-3.5794
X5.9707Y-4.5291
X6.0707Y-4.5291
X6.131Y-3.5794
X6.1707Y-4.5291
X6.1957Y-2.8799
X6.1957Y-3.1791
X6.2707Y-4.5291
X6.3707Y-4.5291
X6.4707Y-4.5291
X6.5707Y-4.5291
X6.6707Y-4.5291
X6.7707Y-4.5291
X6.8707Y-4.5291
X6.9707Y-4.5291
X7.0707Y-4.5291
X7.1207Y-4.2791
X7.1707Y-4.5291
X7.2207Y-4.2791
X7.2707Y-4.5291
X7.3207Y-4.2791
X7.3707Y-4.5291
X7.4207Y-4.2791
X7.4707Y-2.8791
X7.4707Y-2.9791
X7.4707Y-3.0791
X7.4707Y-4.5291
X7.5207Y-4.2791
T5
X4.3706Y-2.7785
X4.3706Y-2.9754
X4.3706Y-4.3535
X4.3706Y-4.5504
X5.6238Y-2.9291
X5.8207Y-2.9291
T6
X4.1206Y-3.2535
X4.1206Y-3.4504
X4.1206Y-3.8441
X4.1206Y-4.0409
T7
X5.3737Y-2.8737
X5.3737Y-4.4485
X7.736Y-2.8737
X7.736Y-4.4485
T0
M30
