G04 #@! TF.FileFunction,Copper,L1,Top,Signal*
%FSLAX46Y46*%
G04 Gerber Fmt 4.6, Leading zero omitted, Abs format (unit mm)*
G04 Created by KiCad (PCBNEW 4.0.7-e2-6376~58~ubuntu16.04.1) date Mon Aug 28 16:01:14 2017*
%MOMM*%
%LPD*%
G01*
G04 APERTURE LIST*
%ADD10C,0.100000*%
%ADD11R,2.000000X4.000000*%
%ADD12O,2.000000X4.000000*%
%ADD13R,4.000000X1.800000*%
%ADD14O,4.000000X1.800000*%
%ADD15R,6.000000X3.000000*%
%ADD16O,6.000000X3.000000*%
%ADD17R,3.000000X5.000000*%
%ADD18O,3.000000X5.000000*%
%ADD19R,4.000000X2.000000*%
%ADD20O,4.000000X2.000000*%
%ADD21R,2.000000X2.000000*%
%ADD22O,2.200000X2.200000*%
%ADD23R,2.200000X2.200000*%
%ADD24C,6.400000*%
%ADD25C,0.600000*%
%ADD26C,2.200000*%
%ADD27R,1.574800X4.500000*%
%ADD28O,2.000000X4.500000*%
%ADD29C,2.350000*%
G04 APERTURE END LIST*
D10*
D11*
X180865000Y-108690000D03*
D12*
X183405000Y-108690000D03*
X185945000Y-108690000D03*
X188485000Y-108690000D03*
X191025000Y-108690000D03*
D13*
X189755000Y-73130000D03*
D14*
X189755000Y-75670000D03*
X189755000Y-78210000D03*
D15*
X111013820Y-110579260D03*
D16*
X111013820Y-115579260D03*
D15*
X111013820Y-70574260D03*
D16*
X111013820Y-75574260D03*
D17*
X147845000Y-74400000D03*
D18*
X142845000Y-74400000D03*
D19*
X157370000Y-80750000D03*
D20*
X157370000Y-73150000D03*
D11*
X147845000Y-81385000D03*
D12*
X145305000Y-81385000D03*
D11*
X189755000Y-115040000D03*
D12*
X187215000Y-115040000D03*
X184675000Y-115040000D03*
X182135000Y-115040000D03*
X179595000Y-115040000D03*
X177055000Y-115040000D03*
X174515000Y-115040000D03*
X171975000Y-115040000D03*
X169435000Y-115040000D03*
X166895000Y-115040000D03*
X164355000Y-115040000D03*
X161815000Y-115040000D03*
X159275000Y-115040000D03*
X156735000Y-115040000D03*
X154195000Y-115040000D03*
X151655000Y-115040000D03*
X149115000Y-115040000D03*
D21*
X178325000Y-75670000D03*
D22*
X183405000Y-75670000D03*
D23*
X165625000Y-70590000D03*
D22*
X168165000Y-70590000D03*
X170705000Y-70590000D03*
D23*
X165625000Y-78210000D03*
D22*
X168165000Y-78210000D03*
X170705000Y-78210000D03*
D23*
X165625000Y-75670000D03*
D22*
X168165000Y-75670000D03*
X170705000Y-75670000D03*
D23*
X165625000Y-73130000D03*
D22*
X168165000Y-73130000D03*
X170705000Y-73130000D03*
D21*
X182135000Y-72495000D03*
D22*
X179595000Y-72495000D03*
D24*
X196493140Y-112990980D03*
D25*
X198893140Y-112990980D03*
X198190196Y-114688036D03*
X196493140Y-115390980D03*
X194796084Y-114688036D03*
X194093140Y-112990980D03*
X194796084Y-111293924D03*
X196493140Y-110590980D03*
X198190196Y-111293924D03*
D24*
X136493140Y-112990980D03*
D25*
X138893140Y-112990980D03*
X138190196Y-114688036D03*
X136493140Y-115390980D03*
X134796084Y-114688036D03*
X134093140Y-112990980D03*
X134796084Y-111293924D03*
X136493140Y-110590980D03*
X138190196Y-111293924D03*
D19*
X150128140Y-90915980D03*
X155728140Y-90915980D03*
D22*
X124985000Y-96625000D03*
X124985000Y-104245000D03*
D26*
X175785000Y-83290000D03*
X175785000Y-70590000D03*
D22*
X124985000Y-83925000D03*
X124985000Y-88925000D03*
D24*
X136493140Y-72990980D03*
D25*
X138893140Y-72990980D03*
X138190196Y-74688036D03*
X136493140Y-75390980D03*
X134796084Y-74688036D03*
X134093140Y-72990980D03*
X134796084Y-71293924D03*
X136493140Y-70590980D03*
X138190196Y-71293924D03*
D26*
X152928140Y-94725980D03*
D22*
X160548140Y-94725980D03*
X131335000Y-106785000D03*
X131335000Y-99165000D03*
X128160000Y-104245000D03*
X128160000Y-96625000D03*
X124985000Y-91545000D03*
X132605000Y-91545000D03*
D19*
X145305000Y-112500000D03*
D20*
X145305000Y-109960000D03*
X145305000Y-107420000D03*
D24*
X196493140Y-72990980D03*
D25*
X194093140Y-72990980D03*
X194796084Y-71293924D03*
X196493140Y-70590980D03*
X198190196Y-71293924D03*
X198893140Y-72990980D03*
X198190196Y-74688036D03*
X196493140Y-75390980D03*
X194796084Y-74688036D03*
D21*
X114823820Y-90259260D03*
D22*
X111648820Y-92799260D03*
X114823820Y-95339260D03*
D19*
X135145000Y-96625000D03*
D20*
X142765000Y-101705000D03*
X135145000Y-99165000D03*
X142765000Y-99165000D03*
X135145000Y-101705000D03*
X142765000Y-96625000D03*
D19*
X142765000Y-91545000D03*
D20*
X135145000Y-86465000D03*
X142765000Y-89005000D03*
X135145000Y-89005000D03*
X142765000Y-86465000D03*
X135145000Y-91545000D03*
D27*
X147845000Y-102805000D03*
D28*
X150385000Y-102805000D03*
X152925000Y-102805000D03*
X155465000Y-102805000D03*
X158005000Y-102805000D03*
X160545000Y-102805000D03*
X163085000Y-102805000D03*
X165625000Y-102805000D03*
X168165000Y-102805000D03*
X170705000Y-102805000D03*
X173245000Y-102805000D03*
X175785000Y-102805000D03*
X178325000Y-102805000D03*
X180865000Y-102805000D03*
X183405000Y-102805000D03*
X183405000Y-85365000D03*
X180865000Y-85365000D03*
X178325000Y-85365000D03*
X175785000Y-85365000D03*
X173245000Y-85365000D03*
X170705000Y-85365000D03*
X168165000Y-85365000D03*
X165625000Y-85365000D03*
X163085000Y-85365000D03*
X160545000Y-85365000D03*
X158005000Y-85365000D03*
X155465000Y-85365000D03*
X152925000Y-85365000D03*
X150385000Y-85365000D03*
X147845000Y-85365000D03*
D29*
X104663820Y-97639260D03*
X104663820Y-102639260D03*
X104663820Y-87639260D03*
X104663820Y-82639260D03*
M02*
