%
M48
M72
T01C0.0320
T02C0.0400
T03C0.0520
%
T01
X10696Y02039
X10696Y03039
X13196Y04539
X14196Y04539
X15196Y04539
X16196Y04539
X18196Y04039
X18196Y03039
X18196Y02039
X20696Y02039
X20696Y03039
X22196Y04039
X19696Y05539
X19696Y06539
X19696Y07539
X18196Y08039
X18196Y09039
X18196Y10039
X19696Y11539
X22196Y09039
X22196Y08039
X16196Y07539
X15196Y07539
X14196Y07539
X13196Y07539
X14196Y08539
X14196Y10039
X15696Y11539
X11196Y08539
X09696Y09539
X08696Y08539
X09696Y07539
X14196Y03039
X14196Y02039
T02
X06196Y01539
X06196Y02539
X06196Y10039
X06196Y11039
T03
X06196Y06529
X06196Y04549
M30
