<?xml version="1.0" encoding="UTF-8" standalone="no"?>

<svg
	xmlns="http://www.w3.org/2000/svg" version="1.1"
	xmlns:freecad="http://www.freecadweb.org/wiki/index.php?title=Svg_Namespace"
	width="297mm"
	height="210mm"
	viewBox="0 0 297 210">
	<!-- Working space 10 10 287 200 -->
	<!-- Title block 107 162 287 200 -->
	<g>
		<rect
			id="drawing-border"
			style="fill:none;stroke:#000000;stroke-width:0.35;stroke-linecap:miter;stroke-miterlimit:4"
			width="277"
			height="190"
			x="10"
			y="10" />
			<!-- width-20, height-20 -->
		<g
			transform="translate(87,-65)">
			<!-- A4 Portrait based for other formats width-210, height-297 -->
			<!--        page       rect   translation
			               w    h    rw   rh   tx   ty
			        A4-P  210  297  180  277    0    0
			        A3-L  420  297  390  277  210    0
			        A2-L  594  420  564  400  384  123
			        A1-L  841  594  811  574  631  297
			        A0-L 1189  841 1159  821  979  544
			-->
			<g
				id="titleblock-structure"
				style="fill:none;stroke:#000000;stroke-width:0.35;stroke-linecap:miter;stroke-miterlimit:4">
				<rect width="180" height="38" x="20" y="227" />
				<path d="m 20,238 h 180" />
				<path d="m 80,227 v 11" />
				<path d="m 140,227 v 38" />
				<path d="m 160,227 v 11" />
				<path d="m 180,227 v 11" />
				<path d="m 140,254 h 60" />
				<path d="m 180,254 v 11" />
			</g>
			<g
				id="titleblock-text-non-editable"
				style="font-size:3px;text-anchor:start;fill:#000000;font-family:osifont"
				xml:space="preserve">
				<text x="21" y="230.5">Created by:</text>
				<text x="81" y="230.5">Title:</text>
				<text x="21" y="241.5">Supplementary information:</text>
				<text x="141" y="230.5">Size:</text>
				<text x="161" y="230.5">Sheet:</text>
				<text x="181" y="230.5">Scale:</text>
				<text x="141" y="241.5">Part number:</text>
				<text x="141" y="249.5">Drawing no.:</text>
				<text x="141" y="257.5">Date:</text>
				<text x="181" y="257.5">Revision:</text>
			</g>
			<g
				id="titleblock-text-editable"
				style="font-size:5px;text-anchor:middle;fill:#000000;font-family:osifont"
				xml:space="preserve">
				<text freecad:editable="AUTHOR NAME" x="50" y="236"><tspan>MARCELO VIOQUE</tspan></text>
				<text freecad:editable="DRAWING TITLE" x="110" y="236"><tspan>RGB CAMBIA COLOR</tspan></text>
				<text freecad:editable="SI-1" x="80" y="247"><tspan></tspan></text>
				<text freecad:editable="FreeCAD DRAWING" x="80" y="254"><tspan>COTAS EN MM</tspan></text>
				<text freecad:editable="SI-3" x="80" y="261"><tspan></tspan></text>
				<text freecad:editable="FC-SI" x="150" y="236"><tspan>A4</tspan></text>
				<text freecad:editable="FC-SH" x="170" y="236"><tspan>X / Y</tspan></text>
				<text freecad:editable="FC-SC" x="190" y="236"><tspan>1.1</tspan></text>
				<text freecad:editable="PN" x="180" y="244"><tspan>PN</tspan></text>
				<text freecad:editable="DN" x="180" y="252"><tspan>0002</tspan></text>
				<text freecad:editable="FC-DATE" x="160" y="263"><tspan>05/09/2016</tspan></text>
				<text freecad:editable="FC-REV" x="190" y="263"><tspan>REV A</tspan></text>
			</g>
			<!-- Set display:none to hide FreeCAD Logo -->
			<g
				style="display:inline"
				id="freecad-logo"
				transform="translate(128.5,254)"
				fill-rule="evenodd"
				stroke="#000"
				stroke-width="0.35"
				fill="none">
					<path d="m0.1524 0.15254v8.8549h1.9744v-3.4652h1.396v-1.3661h-1.396v-1.4745h3.4391v-2.5441l-5.4135-0.005z"/>
					<path d="m7.7927 3.4504-0.50715-0.176-0.48387-1.2366-0.76115 0.04-0.34718 1.2787-0.4859 0.23269-1.2119-0.53015-0.51188 0.56882 0.65892 1.1485-0.18006 0.50567-1.2366 0.48387 0.044064 0.76263 1.2787 0.34718 0.23269 0.4859-0.53421 1.2104 0.56882 0.51188 1.1485-0.65891 0.50973 0.18155 0.4798 1.2351 0.7667-0.04258 0.34311-1.2802 0.4859-0.23269 1.2145 0.5357 0.51188-0.56882-0.65891-1.1485 0.17748-0.51122 1.2351-0.4798-0.03851-0.76521-1.2802-0.34311-0.23269-0.4859 0.53163-1.216-0.56881-0.51184zm-0.5715 1.2244 0.23576 0.13679 0.20426 0.18519 0.16353 0.22101 0.11763 0.24572 0.06916 0.26489 0.01146 0.27146-0.03921 0.27139-0.08948 0.25764-0.14234 0.23834-0.17964 0.20167-0.22101 0.16353-0.24572 0.11763-0.26489 0.06916-0.27295 0.01553-0.2719-0.04-0.2576-0.089-0.2383-0.143-0.2002-0.183-0.165-0.217-0.1177-0.246-0.0676-0.269-0.0156-0.273 0.039206-0.2714 0.089484-0.25764 0.14085-0.23427 0.18113-0.20574 0.22101-0.16352 0.24572-0.11763 0.26895-0.06768 0.27147-0.01146 0.27139 0.03921 0.25764 0.08948z"/>
			</g>
		</g>
	</g>
<g id="Ortho_0_0"
   transform="rotate(0,191.306,60.0573) translate(191.306,60.0573) scale(1.5,1.5)"
  >
<g   stroke="rgb(0, 0, 0)"
   stroke-width="0.233333"
   stroke-linecap="butt"
   stroke-linejoin="miter"
   fill="none"
   transform="scale(1,-1)"
  >
<path d="M-26.4794,8.45 L-26.4794,-1.55 " /><path id= "2" d=" M -27.4807 -1.55 L -26.7162 -1.55 " />
<path id= "3" d=" M -25.7175 -1.55 L -15.72 -1.55 " />
<path d="M-25.7175,-1.55 C-25.9677,-1.55 -26.2327,-1.55 -26.4182,-1.55  C-26.6042,-1.55 -26.7036,-1.55 -26.7162,-1.55 " /><path d="M-27.4807,-1.55 L-26.7162,-1.55 " /><path id= "6" d=" M -15.72 -1.55 L -15.72 8.45 " />
<path id= "7" d=" M -25.7175 8.45 L -15.72 8.45 " />
<path d="M-25.7175,8.45 C-25.9677,8.45 -26.2327,8.45 -26.4182,8.45  C-26.6042,8.45 -26.7036,8.45 -26.7162,8.45 " /><path d="M-27.4807,8.45 L-26.7162,8.45 " /><path d="M26.4794,-3.31 L26.4794,16.69 " /><path id= "11" d=" M 26.4794 16.69 L 26.7162 16.69 " />
<path d="M27.4807,16.69 L26.7162,16.69 " /><path d="M25.7175,16.69 C25.9677,16.69 26.2327,16.69 26.4182,16.69  C26.6042,16.69 26.7036,16.69 26.7162,16.69 " /><path id= "14" d=" M 15.72 16.69 L 25.7175 16.69 " />
<path id= "15" d=" M 15.72 -3.31 L 15.72 16.69 " />
<path d="M27.4807,-3.31 L26.7162,-3.31 " /><path d="M25.7175,-3.31 C25.9677,-3.31 26.2327,-3.31 26.4182,-3.31  C26.6042,-3.31 26.7036,-3.31 26.7162,-3.31 " /><path id= "18" d=" M 15.72 -3.31 L 25.7175 -3.31 " />
<path d="M-27.4807,8.45 L-27.4807,-1.55 " /><path d="M27.7213,17.7825 C27.7213,17.8945 27.7115,18.0112 27.6922,18.122  C27.6676,18.2629 27.6298,18.3969 27.5788,18.5239  C27.4953,18.7282 27.3889,18.9071 27.2596,19.0606  C27.1185,19.2277 26.963,19.3644 26.7933,19.4706  C26.7336,19.5084 26.6729,19.5425 26.6112,19.5731  C26.5795,19.5878 26.5479,19.6025 26.5163,19.6172  C26.484,19.6302 26.4516,19.6432 26.4193,19.6562  C26.3986,19.6638 26.381,19.6701 26.3574,19.678 " /><path d="M26.3572,19.6781 C26.3434,19.6827 26.3241,19.6889 26.3071,19.6941  C26.2893,19.6993 26.2715,19.7044 26.2537,19.7096  C26.2131,19.7209 26.168,19.7317 26.1183,19.7419  C26.0193,19.7618 25.886,19.7811 25.7234,19.7812 " /><path d="M25.7234,19.7812 L-25.7234,19.7812 " /><path d="M-25.7236,19.7812 C-25.8812,19.7811 -26.011,19.7629 -26.1085,19.7438  C-26.2067,19.7236 -26.2897,19.7016 -26.3575,19.678 " /><path d="M-26.3586,19.6776 C-26.7045,19.5612 -27.0405,19.344 -27.3026,19.007  C-27.5492,18.6936 -27.7233,18.2514 -27.7213,17.7825 " /><path d="M-27.7213,17.7825 L-27.7213,-17.7825 " /><path d="M-27.7213,-17.7825 C-27.7213,-17.8945 -27.7115,-18.0112 -27.6922,-18.122  C-27.6676,-18.2629 -27.6298,-18.3969 -27.5788,-18.5239  C-27.4953,-18.7282 -27.3889,-18.9071 -27.2596,-19.0606  C-27.1185,-19.2277 -26.963,-19.3644 -26.7933,-19.4706  C-26.7336,-19.5084 -26.6729,-19.5425 -26.6112,-19.5731  C-26.5795,-19.5878 -26.5479,-19.6025 -26.5163,-19.6172  C-26.484,-19.6302 -26.4516,-19.6432 -26.4193,-19.6562  C-26.3986,-19.6638 -26.381,-19.6701 -26.3574,-19.678 " /><path d="M-26.3572,-19.6781 C-26.3434,-19.6827 -26.3241,-19.6889 -26.3071,-19.6941  C-26.2893,-19.6993 -26.2715,-19.7044 -26.2537,-19.7096  C-26.2131,-19.7209 -26.168,-19.7317 -26.1183,-19.7419  C-26.0193,-19.7618 -25.886,-19.7811 -25.7234,-19.7812 " /><path d="M-25.7234,-19.7812 L25.7234,-19.7812 " /><path d="M25.7236,-19.7812 C25.8812,-19.7811 26.011,-19.7629 26.1085,-19.7438  C26.2067,-19.7236 26.2897,-19.7016 26.3575,-19.678 " /><path d="M26.3586,-19.6776 C26.7045,-19.5612 27.0405,-19.344 27.3026,-19.007  C27.5492,-18.6936 27.7233,-18.2514 27.7213,-17.7825 " /><path d="M27.7213,-17.7825 L27.7213,17.7825 " /><path d="M27.4807,-3.31 L27.4807,16.69 " /><path d="M-1.7797,-19.2077 C-1.78102,-19.1882 -1.88394,-19.1686 -2.12195,-19.1503  C-2.26154,-19.1396 -2.44753,-19.1294 -2.70751,-19.1206  C-2.85962,-19.1153 -3.04288,-19.1109 -3.25728,-19.1074  C-3.47122,-19.1041 -3.72111,-19.1022 -3.97575,-19.1028  C-4.24623,-19.1037 -4.48506,-19.1064 -4.69224,-19.1109  C-4.89627,-19.1153 -5.06879,-19.1205 -5.2098,-19.1265  C-5.43686,-19.1358 -5.59885,-19.1462 -5.71789,-19.1569  C-5.89816,-19.1734 -5.97895,-19.1906 -5.9797,-19.2077 " /><path d="M-5.9797,-19.2077 C-5.97648,-19.2314 -5.82969,-19.2554 -5.46105,-19.2768  C-5.26023,-19.2882 -4.99129,-19.2991 -4.60199,-19.3063  C-4.20992,-19.3142 -3.62459,-19.3149 -3.21658,-19.3073 " /><path d="M-3.21658,-19.3073 C-2.8134,-19.3001 -2.49649,-19.2892 -2.26585,-19.2749  C-1.93622,-19.255 -1.78031,-19.2313 -1.7797,-19.2077 " /></g>
</g>



<g id="Ortho_0_-1"
   transform="rotate(90,191.306,141.615) translate(191.306,141.615) scale(1.5,1.5)"
  >
<g   stroke="rgb(0, 0, 0)"
   stroke-width="0.233333"
   stroke-linecap="butt"
   stroke-linejoin="miter"
   fill="none"
   transform="scale(1,-1)"
  >
<path d="M-20.9521,-26.0234 Q-20.9233,-26.113 -20.8778,-26.1965 " /><path d="M-20.8777,-26.1967 L-20.8777,-26.1968 " /><path d="M-20.7048,-26.4269 L-20.6787,-26.4519 " /><path d="M-4.8,-27.4807 L-20.0501,-26.7162 " /><path d="M-20.9713,-25.9555 Q-20.9416,-26.0766 -20.8822,-26.1883 " /><path d="M-20.8821,-26.1886 L-20.8821,-26.1887 " /><path d="M-20.7195,-26.412 L-20.7192,-26.4123 " /><path d="M-4.8,-27.4807 L-20.0501,-26.7162 " /><path d="M0,-26.3574 L0,-26.4045  L0,-26.4489  L0,-26.4905  L0,-26.529  L0,-26.5643  L0,-26.5963  L0,-26.6248  L0,-26.6498  L0,-26.6711  L0,-26.6886  L0,-26.7023  L0,-26.7121  L0,-26.718  L0,-26.72 " /><path d="M0,-25.7234 L0,-25.7462  L0,-25.7689  L0,-25.7916  L0,-25.8143  L0,-25.8369  L0,-25.8594  L0,-25.8819  L0,-25.9043  L0,-25.9266  L0,-25.9488  L0,-25.9709  L0,-25.9928  L0,-26.0147  L0,-26.0363 " /><path d="M0,26.3575 L0,26.337  L0,26.316  L0,26.2946  L0,26.2728  L0,26.2506  L0,26.2281  L0,26.2052  L0,26.1819  L0,26.1584  L0,26.1345  L0,26.1103  L0,26.0859  L0,26.0612  L0,26.0363 " /><path d="M-4.8,27.4807 L-20.0501,26.7162 " /><path d="M-20.9713,25.9555 Q-20.9416,26.0766 -20.8822,26.1883 " /><path d="M-20.8821,26.1886 L-20.8821,26.1887 " /><path d="M-20.7195,26.412 L-20.7192,26.4123 " /><path id= "16" d=" M -21 24.7175 L -21 25.7175 " />
<path d="M-4.8,27.4807 L-20.0501,26.7162 " /><path d="M-20.9521,26.0234 Q-20.9233,26.113 -20.8778,26.1965 " /><path d="M-20.8777,26.1967 L-20.8777,26.1968 " /><path d="M-20.7048,26.4269 L-20.6787,26.4519 " /><path d="M0,26.0363 L0,26.0612  L0,26.0859  L0,26.1103  L0,26.1345  L0,26.1584  L0,26.1819  L0,26.2052  L0,26.2281  L0,26.2506  L0,26.2728  L0,26.2946  L0,26.316  L0,26.337  L0,26.3575 " /><path d="M0,-26.72 L0,-26.718  L0,-26.7121  L0,-26.7023  L0,-26.6886  L0,-26.6711  L0,-26.6498  L0,-26.6248  L0,-26.5963  L0,-26.5643  L0,-26.529  L0,-26.4905  L0,-26.4489  L0,-26.4045  L0,-26.3574 " /><path d="M0,-27.7213 C0,-27.7238 0,-27.5288 0,-27.2596  C0,-27.1185 0,-26.963 0,-26.7933  C0,-26.7326 0,-26.6719 0,-26.6112  C0,-26.5795 0,-26.5479 0,-26.5163  C0,-26.484 0,-26.4516 0,-26.4193  C0,-26.3986 0,-26.381 0,-26.3574 " /><path d="M0,-26.3572 C0,-26.3274 0,-26.2906 0,-26.2537  C0,-26.2131 0,-26.168 0,-26.1183  C0,-26.0185 0,-25.8868 0,-25.7234 " /><path d="M0,-25.7234 L0,25.7234 " /><path d="M0,25.7236 Q0,25.9612 0,26.1085  Q0,26.2557 0,26.3575 " /><path d="M0,26.3586 C0,26.7045 0,27.0405 0,27.3026  C0,27.5492 0,27.7233 0,27.7213 " /><path d="M-21,24.7175 L-21,24.8295  L-21,24.94  L-21,25.0478  L-21,25.1514  L-21,25.2495  L-21,25.341  L-21,25.4246  L-21,25.4993  L-21,25.5642  L-21,25.6185  L-21,25.6614  L-21,25.6924  L-21,25.7112  L-21,25.7175 " /><path id= "29" d=" M -21 24.7175 L -21 24.3505 " />
<path id= "30" d=" M -21 24.3505 L -21 -24.3505 " />
<path id= "31" d=" M -21 -24.3505 L -21 -24.7175 " />
<path d="M-21,-25.7175 L-21,-25.7112  L-21,-25.6924  L-21,-25.6614  L-21,-25.6185  L-21,-25.5642  L-21,-25.4993  L-21,-25.4246  L-21,-25.341  L-21,-25.2495  L-21,-25.1514  L-21,-25.0478  L-21,-24.94  L-21,-24.8295  L-21,-24.7175 " /><path d="M-20.0501,-26.7162 C-20.2786,-26.7076 -20.541,-26.6029 -20.7246,-26.4067  C-20.9114,-26.2135 -21.0028,-25.9462 -21,-25.7175 " /><path d="M4.33271e-11,-27.7213 C-6.68341,-27.3862 -13.3667,-27.0512 -20.0501,-26.7162 " /><path d="M5.03011e-11,-27.7213 C-6.68341,-27.3862 -13.3667,-27.0512 -20.0501,-26.7162 " /><path d="M8.32018e-07,27.7213 C-6.6835,27.3862 -13.3667,27.0512 -20.0501,26.7162 " /><path d="M4.33271e-11,27.7213 C-6.68341,27.3862 -13.3667,27.0512 -20.0501,26.7162 " /><path d="M-20.0501,26.7162 Q-20.1903,26.7101 -20.3355,26.6596 " /><path d="M-20.5293,26.5659 Q-20.5984,26.5229 -20.6604,26.4684 " /><path d="M-20.0501,26.7162 C-20.2786,26.7076 -20.541,26.6029 -20.7246,26.4067  C-20.9114,26.2135 -21.0028,25.9462 -21,25.7175 " /><path d="M-11.4707,-1.7797 C-11.8606,-1.78102 -12.2526,-1.88394 -12.6197,-2.12195  C-12.8321,-2.26154 -13.0372,-2.44753 -13.2131,-2.70751  C-13.3187,-2.85962 -13.4065,-3.04288 -13.4763,-3.25728  C-13.5433,-3.47122 -13.5806,-3.72111 -13.5685,-3.97575  C-13.5563,-4.24393 -13.4933,-4.48735 -13.4071,-4.69224  C-13.3183,-4.89627 -13.2145,-5.06879 -13.0958,-5.2098  C-12.9092,-5.43686 -12.7006,-5.59885 -12.4861,-5.71789  C-12.286,-5.82676 -12.082,-5.901 -11.8739,-5.94063  C-11.477,-6.01709 -11.0726,-5.98266 -10.683,-5.82638  C-10.4771,-5.7454 -10.2791,-5.62363 -10.0889,-5.46105  C-9.86142,-5.26023 -9.64381,-4.99129 -9.49882,-4.60199  C-9.42586,-4.40524 -9.37435,-4.16196 -9.371,-3.91544  C-9.36584,-3.6691 -9.40945,-3.42003 -9.47815,-3.21658 " /><path d="M-9.47815,-3.21658 C-9.61229,-2.81473 -9.85142,-2.49517 -10.127,-2.26585  C-10.5248,-1.93622 -11,-1.78031 -11.4707,-1.7797 " /></g>
</g>



<g id="Ortho_-1_-1"
   transform="rotate(-60,68.7252,132.294) translate(68.7252,132.294) scale(1.5,1.5)"
  >
<g   stroke="rgb(0, 0, 0)"
   stroke-width="0.233333"
   stroke-linecap="butt"
   stroke-linejoin="miter"
   fill="none"
   transform="scale(1,-1)"
  >
<path id= "1" d=" M -13.7691 19.8174 L -13.2035 19.4908 " />
<path id= "2" d=" M -12.5035 19.4215 L -11.7304 19.8678 " />
<path id= "3" d=" M -10.5978 19.7134 L -2.25401 24.5307 " />
<path d="M33.3272,11.2932 L33.3272,11.3667 " /><path d="M33.3272,-16.035 L33.3272,-5.03676 " /><path d="M-4.23455,33.7415 C-9.64256,31.2087 -14.8067,28.7942 -19.1359,26.7789 " /><path d="M32.7166,-17.2974 C27.8359,-20.7042 23.1693,-23.9651 19.2373,-26.7204 " /><path d="M-4.23455,33.7415 C-4.12288,33.7968 -3.98649,33.836 -3.82537,33.8589  C-3.68202,33.8767 -3.50932,33.8751 -3.31635,33.8309  C-3.14715,33.7929 -2.97485,33.7203 -2.83578,33.6392 " /><path d="M-2.57624,33.4893 Q-2.70911,33.566 -2.83578,33.6392 " /><path d="M31.8605,13.6073 L-2.57624,33.4893 " /><path d="M32.12,13.4574 Q31.9934,13.5306 31.8605,13.6073 " /><path d="M32.12,13.4574 C32.2175,13.4005 32.3257,13.3297 32.4635,13.2088  C32.544,13.137 32.6348,13.0497 32.748,12.9107  C32.8175,12.8249 32.9007,12.7101 32.98,12.5741  C33.0577,12.4411 33.1176,12.3111 33.1582,12.2078  C33.2235,12.0414 33.2551,11.9194 33.2782,11.8142  C33.3189,11.6205 33.3264,11.485 33.3272,11.3667 " /><path d="M32.7166,-17.2974 C32.8206,-17.2282 32.9228,-17.1293 33.0234,-17.0009  C33.1105,-16.8854 33.1955,-16.7347 33.2535,-16.5451  C33.3048,-16.3801 33.3279,-16.1954 33.3272,-16.035 " /></g>
<g   stroke="rgb(0, 0, 0)"
   stroke-width="0.233333"
   stroke-linecap="butt"
   stroke-linejoin="miter"
   fill="none"
   transform="scale(1,-1)"
  >
<path d="M-14.1422 20.2893 A0.6 0.34641 -60 0 1 -13.7691 19.8174" />
<path d="M-13.9803 20.3738 A1.4 0.80829 -60 0 1 -13.2035 19.4908" />
<path d="M-13.2035 19.4908 A1.4 0.80829 -60 0 1 -12.5035 19.4215" />
<path d="M-12.7487 21.017 A2.1 1.21244 -60 0 1 -10.5978 19.7134" />
<path id= "5" d=" M 3.02642 14.1336 L 3.02642 21.482 " />
<path id= "6" d=" M 3.02642 21.482 L -4.04288 25.5635 " />
<path d="M-3.33578 32.7732 A1 0.57735 -60 0 1 -3.81042 32.8359" />
<path id= "8" d=" M 32.3272 11.2932 L 25.965 14.9664 " />
<path d="M32.1442 -16.4774 A1 0.57735 -60 0 1 32.3272 -16.035" />
<path d="M-15.3297,19.6692 L-15.3297,12.2827 " /><path d="M-15.3297,19.6692 L-4.04288,25.5635 " /><path id= "12" d=" M -3.33578 17.8068 L 3.73352 13.7253 " />
<path d="M-3.33578,17.8068 C-3.51121,17.9098 -3.77189,17.9756 -4.03383,17.9758  C-4.29022,17.9779 -4.5388,17.9192 -4.7137,17.8267 " /><path d="M-16.0376,11.913 L-4.7137,17.8267 " /><path id= "15" d=" M 3.73352 13.7253 L 3.73352 21.8903 " />
<path id= "16" d=" M 3.02642 21.482 L 3.73352 21.8903 " />
<path id= "17" d=" M -16.0376 20.0779 L -15.3297 19.6692 " />
<path id= "18" d=" M -3.33578 25.9717 L 3.73352 21.8903 " />
<path d="M-3.33578,25.9717 C-3.51121,26.0748 -3.77189,26.1406 -4.03383,26.1408  C-4.29022,26.1429 -4.5388,26.0842 -4.7137,25.9917 " /><path d="M-16.0376,20.0779 L-4.7137,25.9917 " /><path id= "21" d=" M -9.09173 20.5829 L -4.47703 17.9186 " />
<path d="M18.4105,4.66261 L31.62,12.5914 " /><path d="M25.965,7.23228 L32.3272,11.2932 " /><path d="M25.965,6.37162 L33.0688,10.9059 " /><path d="M33.0343,11.7014 C33.2148,11.599 33.3292,11.4461 33.3272,11.2932 " /><path d="M33.3272,11.2932 C33.3283,11.1469 33.2271,11.0057 33.0688,10.9059 " /><path id= "27" d=" M 25.965 15.7829 L 33.0343 11.7014 " />
<path id= "28" d=" M 25.965 -0.547053 L 25.965 15.7829 " />
<path d="M33.0343,-4.62851 C33.2148,-4.73096 33.3292,-4.88382 33.3272,-5.03676 " /><path id= "30" d=" M 25.965 -0.547053 L 33.0343 -4.62851 " />
<path d="M6.85257,-9.45606 Q7.18891,-9.24464 7.35645,-8.95009 " /><path d="M3.37884,-9.06491 C3.39668,-9.09641 3.41728,-9.12823 3.44065,-9.16036  C3.52022,-9.2704 3.64299,-9.38995 3.80361,-9.49341  C3.96272,-9.59737 4.16082,-9.68436 4.3508,-9.74196 " /><path d="M4.3508,-9.74196 C4.74792,-9.86334 5.16648,-9.89204 5.53972,-9.86255  C6.06489,-9.82026 6.51606,-9.66904 6.85257,-9.45606 " /><path d="M-16.0376,20.0779 L-16.0376,11.913 " /><path d="M-19.1359,26.7789 C-19.2657,26.7212 -19.3741,26.6167 -19.4612,26.4655  C-19.5493,26.3072 -19.6024,26.0895 -19.6019,25.8365 " /><path d="M-19.6019,25.8365 L-19.6019,-3.2022 " /><path d="M-19.6019,-3.2022 C-19.6023,-3.41131 -19.5654,-3.6443 -19.5012,-3.86566  C-19.4421,-4.06661 -19.3669,-4.25613 -19.2754,-4.43421  C-19.1757,-4.62829 -19.0658,-4.80334 -18.9457,-4.95937  C-18.9035,-5.01454 -18.8606,-5.06724 -18.8169,-5.11745  C-18.7946,-5.14233 -18.7722,-5.16722 -18.7499,-5.1921  C-18.727,-5.21592 -18.7041,-5.23974 -18.6812,-5.26356  C-18.6667,-5.27823 -18.6542,-5.29057 -18.6375,-5.30666 " /><path d="M-18.6374,-5.30677 C-18.6163,-5.32709 -18.5902,-5.3515 -18.5641,-5.37483  C-18.5355,-5.4006 -18.5036,-5.42779 -18.4684,-5.45639  C-18.3984,-5.51314 -18.3042,-5.58326 -18.1892,-5.64978 " /><path d="M-18.1892,-5.64978 L18.1892,-26.6529 " /><path d="M18.1893,-26.6529 C18.3008,-26.7172 18.3926,-26.7553 18.4615,-26.7795  C18.5309,-26.8031 18.5896,-26.819 18.6376,-26.8274 " /><path d="M18.6383,-26.8275 C18.8539,-26.8683 19.0634,-26.8418 19.2373,-26.7204 " /><path d="M6.85257,-10.2736 C6.98454,-10.1899 7.09793,-10.0965 7.19274,-9.99329  C7.35748,-9.81161 7.46608,-9.60059 7.46765,-9.35564 " /><path d="M7.46765,-9.35564 C7.46836,-9.27802 7.45533,-9.19692 7.42858,-9.11233  C7.39572,-9.00279 7.32818,-8.88858 7.22597,-8.76968  C7.12205,-8.65226 6.97174,-8.53348 6.7831,-8.43498  C6.58484,-8.33098 6.36816,-8.25989 6.16236,-8.21494  C5.95529,-8.17153 5.75991,-8.14771 5.57622,-8.14347  C5.28444,-8.13727 5.02099,-8.15939 4.78585,-8.20983  C4.35722,-8.29819 4.01137,-8.45322 3.74889,-8.65201  C3.46632,-8.87035 3.27204,-9.14264 3.26765,-9.47688 " /><path d="M3.26765,-9.47688 C3.26853,-9.6384 3.31553,-9.81719 3.46258,-10.0069  C3.55012,-10.12 3.68571,-10.2424 3.85766,-10.3446  C4.0282,-10.4475 4.23516,-10.5296 4.4276,-10.5818 " /><path d="M4.4276,-10.5818 C4.8066,-10.6856 5.20165,-10.7087 5.55869,-10.6785  C6.07307,-10.6344 6.51929,-10.4847 6.85257,-10.2736 " /></g>
</g>



<g id="ViewGroup" transform="rotate(0.0,191.31,60.06) translate(191.31,60.06) scale(1.5,-1.5)"><path d="M 25.720919226 19.7812492197 L 40.0 19.7812492197 L 40.0 -19.7812492197 L 25.720919226 -19.7812492197" fill="none" stroke="#2b7cff" stroke-width="0.133333333333 px" style="stroke-width:0.133333333333;stroke-miterlimit:4;stroke-dasharray:none" freecad:basepoint1="25.720919226 19.7812492197" freecad:basepoint2="25.720919226 -19.7812492197" freecad:dimpoint="40.0 19.7812492197"/>
<path transform="rotate(-90.0,40.0,19.7812492197) translate(40.0,19.7812492197) scale(0.266666666667,0.266666666667)" freecad:skip="1" fill="#2b7cff" stroke="none" style="stroke-miterlimit:4;stroke-dasharray:none" d="M 0 0 L 4 1 L 4 -1 Z"/>
<path transform="rotate(90.0,40.0,-19.7812492197) translate(40.0,-19.7812492197) scale(0.266666666667,0.266666666667)" freecad:skip="1" fill="#2b7cff" stroke="none" style="stroke-miterlimit:4;stroke-dasharray:none" d="M 0 0 L 4 1 L 4 -1 Z"/>
<text fill="#2b7cff" font-size="4.0" style="text-anchor:middle;text-align:center;font-family:" transform="rotate(-90.0,41.0,0.0) translate(41.0,0.0) scale(1,-1) " freecad:skip="1">
39,56 </text>
<path d="M 25.720919226 19.7812492197 L 31.0 19.7812492197 L 31.0 16.69 L 25.720919226 16.69" fill="none" stroke="#2b7cff" stroke-width="0.133333333333 px" style="stroke-width:0.133333333333;stroke-miterlimit:4;stroke-dasharray:none" freecad:basepoint1="25.720919226 19.7812492197" freecad:basepoint2="25.720919226 16.69" freecad:dimpoint="31.0 19.7812492197"/>
<path transform="rotate(90.0,31.0,19.7812492197) translate(31.0,19.7812492197) scale(0.266666666667,0.266666666667)" freecad:skip="1" fill="#2b7cff" stroke="none" style="stroke-miterlimit:4;stroke-dasharray:none" d="M 0 0 L 4 1 L 4 -1 Z"/>
<path transform="rotate(270.0,31.0,16.69) translate(31.0,16.69) scale(0.266666666667,0.266666666667)" freecad:skip="1" fill="#2b7cff" stroke="none" style="stroke-miterlimit:4;stroke-dasharray:none" d="M 0 0 L 4 1 L 4 -1 Z"/>
<text fill="#2b7cff" font-size="4.0" style="text-anchor:middle;text-align:center;font-family:" transform="rotate(-90.0,32.0,18.2356246098) translate(32.0,18.2356246098) scale(1,-1) " freecad:skip="1">
3,09 </text>
<path d="M 28.1518 16.69 L 31.0 16.69 L 31.0 -3.31 L 28.1518 -3.31" fill="none" stroke="#2b7cff" stroke-width="0.133333333333 px" style="stroke-width:0.133333333333;stroke-miterlimit:4;stroke-dasharray:none" freecad:basepoint1="28.1518 16.69" freecad:basepoint2="28.1518 -3.31" freecad:dimpoint="31.0 16.69"/>
<path transform="rotate(-90.0,31.0,16.69) translate(31.0,16.69) scale(0.266666666667,0.266666666667)" freecad:skip="1" fill="#2b7cff" stroke="none" style="stroke-miterlimit:4;stroke-dasharray:none" d="M 0 0 L 4 1 L 4 -1 Z"/>
<path transform="rotate(90.0,31.0,-3.31) translate(31.0,-3.31) scale(0.266666666667,0.266666666667)" freecad:skip="1" fill="#2b7cff" stroke="none" style="stroke-miterlimit:4;stroke-dasharray:none" d="M 0 0 L 4 1 L 4 -1 Z"/>
<text fill="#2b7cff" font-size="4.0" style="text-anchor:middle;text-align:center;font-family:" transform="rotate(-90.0,32.0,6.69) translate(32.0,6.69) scale(1,-1) " freecad:skip="1">
20 </text>
<path d="M -25.720919226 -19.7812492197 L -31.0 -19.7812492197 L -31.0 -1.55 L -25.720919226 -1.55" fill="none" stroke="#2b7cff" stroke-width="0.133333333333 px" style="stroke-width:0.133333333333;stroke-miterlimit:4;stroke-dasharray:none" freecad:basepoint1="-25.720919226 -19.7812492197" freecad:basepoint2="-25.720919226 -1.55" freecad:dimpoint="-31.0 -19.7812492197"/>
<path transform="rotate(90.0,-31.0,-19.7812492197) translate(-31.0,-19.7812492197) scale(0.266666666667,0.266666666667)" freecad:skip="1" fill="#2b7cff" stroke="none" style="stroke-miterlimit:4;stroke-dasharray:none" d="M 0 0 L 4 1 L 4 -1 Z"/>
<path transform="rotate(270.0,-31.0,-1.55) translate(-31.0,-1.55) scale(0.266666666667,0.266666666667)" freecad:skip="1" fill="#2b7cff" stroke="none" style="stroke-miterlimit:4;stroke-dasharray:none" d="M 0 0 L 4 1 L 4 -1 Z"/>
<text fill="#2b7cff" font-size="4.0" style="text-anchor:middle;text-align:center;font-family:" transform="rotate(90.0,-32.0,-10.6656246099) translate(-32.0,-10.6656246099) scale(1,-1) " freecad:skip="1">
18,23 </text>
<path d="M -15.6518 -1.55 L -31.0 -1.55 L -31.0 8.45 L -15.6518 8.45" fill="none" stroke="#2b7cff" stroke-width="0.133333333333 px" style="stroke-width:0.133333333333;stroke-miterlimit:4;stroke-dasharray:none" freecad:basepoint1="-15.6518 -1.55" freecad:basepoint2="-15.6518 8.45" freecad:dimpoint="-31.0 -1.55"/>
<path transform="rotate(90.0,-31.0,-1.55) translate(-31.0,-1.55) scale(0.266666666667,0.266666666667)" freecad:skip="1" fill="#2b7cff" stroke="none" style="stroke-miterlimit:4;stroke-dasharray:none" d="M 0 0 L 4 1 L 4 -1 Z"/>
<path transform="rotate(270.0,-31.0,8.45) translate(-31.0,8.45) scale(0.266666666667,0.266666666667)" freecad:skip="1" fill="#2b7cff" stroke="none" style="stroke-miterlimit:4;stroke-dasharray:none" d="M 0 0 L 4 1 L 4 -1 Z"/>
<text fill="#2b7cff" font-size="4.0" style="text-anchor:middle;text-align:center;font-family:" transform="rotate(90.0,-32.0,3.45) translate(-32.0,3.45) scale(1,-1) " freecad:skip="1">
10 </text>
<path d="M 15.72 16.69 L 15.72 23.0 L 27.72 23.0 L 27.72 16.69" fill="none" stroke="#2b7cff" stroke-width="0.133333333333 px" style="stroke-width:0.133333333333;stroke-miterlimit:4;stroke-dasharray:none" freecad:basepoint1="15.72 16.69" freecad:basepoint2="27.72 16.69" freecad:dimpoint="15.72 23.0"/>
<path transform="rotate(-0.0,15.72,23.0) translate(15.72,23.0) scale(0.266666666667,0.266666666667)" freecad:skip="1" fill="#2b7cff" stroke="none" style="stroke-miterlimit:4;stroke-dasharray:none" d="M 0 0 L 4 1 L 4 -1 Z"/>
<path transform="rotate(180.0,27.72,23.0) translate(27.72,23.0) scale(0.266666666667,0.266666666667)" freecad:skip="1" fill="#2b7cff" stroke="none" style="stroke-miterlimit:4;stroke-dasharray:none" d="M 0 0 L 4 1 L 4 -1 Z"/>
<text fill="#2b7cff" font-size="4.0" style="text-anchor:middle;text-align:center;font-family:" transform="rotate(-0.0,21.72,24.0) translate(21.72,24.0) scale(1,-1) " freecad:skip="1">
12 </text>
<path d="M -27.7187492197 -17.7824968711 L -27.7187492197 -24.0 L 27.7187492197 -24.0 L 27.7187492197 -17.7824968711" fill="none" stroke="#2b7cff" stroke-width="0.133333333333 px" style="stroke-width:0.133333333333;stroke-miterlimit:4;stroke-dasharray:none" freecad:basepoint1="-27.7187492197 -17.7824968711" freecad:basepoint2="27.7187492197 -17.7824968711" freecad:dimpoint="-27.7187492197 -24.0"/>
<path transform="rotate(-0.0,-27.7187492197,-24.0) translate(-27.7187492197,-24.0) scale(0.266666666667,0.266666666667)" freecad:skip="1" fill="#2b7cff" stroke="none" style="stroke-miterlimit:4;stroke-dasharray:none" d="M 0 0 L 4 1 L 4 -1 Z"/>
<path transform="rotate(180.0,27.7187492197,-24.0) translate(27.7187492197,-24.0) scale(0.266666666667,0.266666666667)" freecad:skip="1" fill="#2b7cff" stroke="none" style="stroke-miterlimit:4;stroke-dasharray:none" d="M 0 0 L 4 1 L 4 -1 Z"/>
<text fill="#2b7cff" font-size="4.0" style="text-anchor:middle;text-align:center;font-family:" transform="rotate(-0.0,0.0,-23.0) translate(0.0,-23.0) scale(1,-1) " freecad:skip="1">
55,44 </text>
</g>


<g id="ViewGroup001" transform="rotate(90.0,191.31,141.61) translate(191.31,141.61) scale(1.5,-1.5)"><path d="M -21.0 27.72 L -21.0007341151 39.9994021134 L -0.000734115108929 40.0006575831 L -0.0 27.7212554697" fill="none" stroke="#2b7cff" stroke-width="0.133333333333 px" style="stroke-width:0.133333333333;stroke-miterlimit:4;stroke-dasharray:none" freecad:basepoint1="-21.0 27.72" freecad:basepoint2="-0.0 27.7212554697" freecad:dimpoint="-21.0007341151 39.9994021134"/>
<path transform="rotate(0.00342875485756,-21.0007341151,39.9994021134) translate(-21.0007341151,39.9994021134) scale(0.266666666667,0.266666666667)" freecad:skip="1" fill="#2b7cff" stroke="none" style="stroke-miterlimit:4;stroke-dasharray:none" d="M 0 0 L 4 1 L 4 -1 Z"/>
<path transform="rotate(180.003428755,-0.000734115108929,40.0006575831) translate(-0.000734115108929,40.0006575831) scale(0.266666666667,0.266666666667)" freecad:skip="1" fill="#2b7cff" stroke="none" style="stroke-miterlimit:4;stroke-dasharray:none" d="M 0 0 L 4 1 L 4 -1 Z"/>
<text fill="#2b7cff" font-size="4.0" style="text-anchor:middle;text-align:center;font-family:" transform="rotate(0.00342875485756,-10.5007938994,41.0000298465) translate(-10.5007938994,41.0000298465) scale(1,-1) " freecad:skip="1">
21 </text>
<path d="M -21.0 27.72 L -21.0 31.0 L -4.8 31.0 L -4.8 27.72" fill="none" stroke="#2b7cff" stroke-width="0.133333333333 px" style="stroke-width:0.133333333333;stroke-miterlimit:4;stroke-dasharray:none" freecad:basepoint1="-21.0 27.72" freecad:basepoint2="-4.8 27.72" freecad:dimpoint="-21.0 31.0"/>
<path transform="rotate(-0.0,-21.0,31.0) translate(-21.0,31.0) scale(0.266666666667,0.266666666667)" freecad:skip="1" fill="#2b7cff" stroke="none" style="stroke-miterlimit:4;stroke-dasharray:none" d="M 0 0 L 4 1 L 4 -1 Z"/>
<path transform="rotate(180.0,-4.8,31.0) translate(-4.8,31.0) scale(0.266666666667,0.266666666667)" freecad:skip="1" fill="#2b7cff" stroke="none" style="stroke-miterlimit:4;stroke-dasharray:none" d="M 0 0 L 4 1 L 4 -1 Z"/>
<text fill="#2b7cff" font-size="4.0" style="text-anchor:middle;text-align:center;font-family:" transform="rotate(-0.0,-12.9,32.0) translate(-12.9,32.0) scale(1,-1) " freecad:skip="1">
16,2 </text>
<path d="M -11.4707 -3.8797 L -11.4707 -30.9701538086 L -21.0 -30.9701538086 L -21.0 -3.8797" fill="none" stroke="#2b7cff" stroke-width="0.133333333333 px" style="stroke-width:0.133333333333;stroke-miterlimit:4;stroke-dasharray:none" freecad:basepoint1="-11.4707 -3.8797" freecad:basepoint2="-21.0 -3.8797" freecad:dimpoint="-11.4707 -30.9701538086"/>
<path transform="rotate(-180.0,-11.4707,-30.9701538086) translate(-11.4707,-30.9701538086) scale(0.266666666667,0.266666666667)" freecad:skip="1" fill="#2b7cff" stroke="none" style="stroke-miterlimit:4;stroke-dasharray:none" d="M 0 0 L 4 1 L 4 -1 Z"/>
<path transform="rotate(0.0,-21.0,-30.9701538086) translate(-21.0,-30.9701538086) scale(0.266666666667,0.266666666667)" freecad:skip="1" fill="#2b7cff" stroke="none" style="stroke-miterlimit:4;stroke-dasharray:none" d="M 0 0 L 4 1 L 4 -1 Z"/>
<text fill="#2b7cff" font-size="4.0" style="text-anchor:middle;text-align:center;font-family:" transform="rotate(-180.0,-16.23535,-31.9701538086) translate(-16.23535,-31.9701538086) scale(1,-1) " freecad:skip="1">
9,53 </text>
<path d="M -9.37073221059 -3.89133114057 L -9.37073221059 -3.89133114057 L -13.5706677894 -3.86806885943 L -13.5706677894 -3.86806885943" fill="none" stroke="#2b7cff" stroke-width="0.133333333333 px" style="stroke-width:0.133333333333;stroke-miterlimit:4;stroke-dasharray:none" freecad:basepoint1="-9.37073221059 -3.89133114057" freecad:basepoint2="-13.5706677894 -3.86806885943" freecad:dimpoint="-9.37073221059 -3.89133114057"/>
<path transform="rotate(359.682655351,-9.37073221059,-3.89133114057) translate(-9.37073221059,-3.89133114057) scale(0.266666666667,0.266666666667)" freecad:skip="1" fill="#2b7cff" stroke="none" style="stroke-miterlimit:4;stroke-dasharray:none" d="M 0 0 L 4 1 L 4 -1 Z"/>
<path transform="rotate(539.682655351,-13.5706677894,-3.86806885943) translate(-13.5706677894,-3.86806885943) scale(0.266666666667,0.266666666667)" freecad:skip="1" fill="#2b7cff" stroke="none" style="stroke-miterlimit:4;stroke-dasharray:none" d="M 0 0 L 4 1 L 4 -1 Z"/>
<text fill="#2b7cff" font-size="4.0" style="text-anchor:middle;text-align:center;font-family:" transform="rotate(-0.317344648518,-11.4540840849,-0.879746015125) translate(-11.4540840849,-0.879746015125) scale(1,-1) " freecad:skip="1">
Ø 4,2 </text>
<path d="M -11.4707 -3.8797 L -24.9354267657 -3.8797 L -24.9354267657 27.72 L -11.4707 27.72" fill="none" stroke="#2b7cff" stroke-width="0.133333333333 px" style="stroke-width:0.133333333333;stroke-miterlimit:4;stroke-dasharray:none" freecad:basepoint1="-11.4707 -3.8797" freecad:basepoint2="-11.4707 27.72" freecad:dimpoint="-24.9354267657 -3.8797"/>
<path transform="rotate(90.0,-24.9354267657,-3.8797) translate(-24.9354267657,-3.8797) scale(0.266666666667,0.266666666667)" freecad:skip="1" fill="#2b7cff" stroke="none" style="stroke-miterlimit:4;stroke-dasharray:none" d="M 0 0 L 4 1 L 4 -1 Z"/>
<path transform="rotate(270.0,-24.9354267657,27.72) translate(-24.9354267657,27.72) scale(0.266666666667,0.266666666667)" freecad:skip="1" fill="#2b7cff" stroke="none" style="stroke-miterlimit:4;stroke-dasharray:none" d="M 0 0 L 4 1 L 4 -1 Z"/>
<text fill="#2b7cff" font-size="4.0" style="text-anchor:middle;text-align:center;font-family:" transform="rotate(90.0,-25.9354267657,11.92015) translate(-25.9354267657,11.92015) scale(1,-1) " freecad:skip="1">
31,6 </text>
</g>


</svg>

