G04 #@! TF.FileFunction,Copper,L2,Bot,Signal*
%FSLAX46Y46*%
G04 Gerber Fmt 4.6, Leading zero omitted, Abs format (unit mm)*
G04 Created by KiCad (PCBNEW 4.0.7-e2-6376~58~ubuntu16.04.1) date Mon Aug 28 17:12:59 2017*
%MOMM*%
%LPD*%
G01*
G04 APERTURE LIST*
%ADD10C,0.100000*%
%ADD11C,0.300000*%
%ADD12C,0.010000*%
%ADD13C,0.381000*%
%ADD14R,1.700000X2.000000*%
%ADD15R,2.000000X4.000000*%
%ADD16O,2.000000X4.000000*%
%ADD17R,4.000000X1.800000*%
%ADD18O,4.000000X1.800000*%
%ADD19R,6.000000X3.000000*%
%ADD20O,6.000000X3.000000*%
%ADD21R,3.000000X5.000000*%
%ADD22O,3.000000X5.000000*%
%ADD23R,4.000000X2.000000*%
%ADD24O,4.000000X2.000000*%
%ADD25R,2.000000X2.000000*%
%ADD26O,2.200000X2.200000*%
%ADD27R,2.200000X2.200000*%
%ADD28C,6.400000*%
%ADD29C,0.600000*%
%ADD30C,2.200000*%
%ADD31R,1.574800X4.500000*%
%ADD32O,2.000000X4.500000*%
%ADD33C,2.350000*%
%ADD34C,0.750000*%
%ADD35C,0.500000*%
%ADD36C,1.000000*%
%ADD37C,2.000000*%
G04 APERTURE END LIST*
D10*
D11*
X195679569Y-80868598D02*
X197012902Y-80868598D01*
X195870045Y-80868598D02*
X195774807Y-80963837D01*
X195679569Y-81154313D01*
X195679569Y-81440027D01*
X195774807Y-81630503D01*
X195965283Y-81725741D01*
X197012902Y-81725741D01*
X197012902Y-83535265D02*
X195965283Y-83535265D01*
X195774807Y-83440027D01*
X195679569Y-83249551D01*
X195679569Y-82868599D01*
X195774807Y-82678122D01*
X196917664Y-83535265D02*
X197012902Y-83344789D01*
X197012902Y-82868599D01*
X196917664Y-82678122D01*
X196727188Y-82582884D01*
X196536711Y-82582884D01*
X196346235Y-82678122D01*
X196250997Y-82868599D01*
X196250997Y-83344789D01*
X196155759Y-83535265D01*
X195679569Y-84487646D02*
X197012902Y-84487646D01*
X195870045Y-84487646D02*
X195774807Y-84582885D01*
X195679569Y-84773361D01*
X195679569Y-85059075D01*
X195774807Y-85249551D01*
X195965283Y-85344789D01*
X197012902Y-85344789D01*
X197012902Y-86582885D02*
X196917664Y-86392409D01*
X196822426Y-86297170D01*
X196631950Y-86201932D01*
X196060521Y-86201932D01*
X195870045Y-86297170D01*
X195774807Y-86392409D01*
X195679569Y-86582885D01*
X195679569Y-86868599D01*
X195774807Y-87059075D01*
X195870045Y-87154313D01*
X196060521Y-87249551D01*
X196631950Y-87249551D01*
X196822426Y-87154313D01*
X196917664Y-87059075D01*
X197012902Y-86868599D01*
X197012902Y-86582885D01*
X197012902Y-89249552D02*
X196060521Y-88582885D01*
X197012902Y-88106694D02*
X195012902Y-88106694D01*
X195012902Y-88868599D01*
X195108140Y-89059075D01*
X195203378Y-89154314D01*
X195393854Y-89249552D01*
X195679569Y-89249552D01*
X195870045Y-89154314D01*
X195965283Y-89059075D01*
X196060521Y-88868599D01*
X196060521Y-88106694D01*
X196917664Y-90868599D02*
X197012902Y-90678123D01*
X197012902Y-90297171D01*
X196917664Y-90106694D01*
X196727188Y-90011456D01*
X195965283Y-90011456D01*
X195774807Y-90106694D01*
X195679569Y-90297171D01*
X195679569Y-90678123D01*
X195774807Y-90868599D01*
X195965283Y-90963837D01*
X196155759Y-90963837D01*
X196346235Y-90011456D01*
X195679569Y-91535266D02*
X195679569Y-92297171D01*
X197012902Y-91820980D02*
X195298616Y-91820980D01*
X195108140Y-91916219D01*
X195012902Y-92106695D01*
X195012902Y-92297171D01*
X197012902Y-93249552D02*
X196917664Y-93059076D01*
X196727188Y-92963837D01*
X195012902Y-92963837D01*
X197012902Y-94297171D02*
X196917664Y-94106695D01*
X196822426Y-94011456D01*
X196631950Y-93916218D01*
X196060521Y-93916218D01*
X195870045Y-94011456D01*
X195774807Y-94106695D01*
X195679569Y-94297171D01*
X195679569Y-94582885D01*
X195774807Y-94773361D01*
X195870045Y-94868599D01*
X196060521Y-94963837D01*
X196631950Y-94963837D01*
X196822426Y-94868599D01*
X196917664Y-94773361D01*
X197012902Y-94582885D01*
X197012902Y-94297171D01*
X195679569Y-95630504D02*
X197012902Y-96011457D01*
X196060521Y-96392409D01*
X197012902Y-96773361D01*
X195679569Y-97154314D01*
X195679569Y-99249552D02*
X197012902Y-99725743D01*
X195679569Y-100201933D01*
X197012902Y-102011458D02*
X197012902Y-100868600D01*
X197012902Y-101440029D02*
X195012902Y-101440029D01*
X195298616Y-101249553D01*
X195489092Y-101059077D01*
X195584330Y-100868600D01*
X196822426Y-102868600D02*
X196917664Y-102963839D01*
X197012902Y-102868600D01*
X196917664Y-102773362D01*
X196822426Y-102868600D01*
X197012902Y-102868600D01*
X195012902Y-104201934D02*
X195012902Y-104392410D01*
X195108140Y-104582886D01*
X195203378Y-104678124D01*
X195393854Y-104773362D01*
X195774807Y-104868601D01*
X196250997Y-104868601D01*
X196631950Y-104773362D01*
X196822426Y-104678124D01*
X196917664Y-104582886D01*
X197012902Y-104392410D01*
X197012902Y-104201934D01*
X196917664Y-104011458D01*
X196822426Y-103916220D01*
X196631950Y-103820981D01*
X196250997Y-103725743D01*
X195774807Y-103725743D01*
X195393854Y-103820981D01*
X195203378Y-103916220D01*
X195108140Y-104011458D01*
X195012902Y-104201934D01*
D12*
G36*
X170752645Y-90859866D02*
X170789867Y-90934519D01*
X170858401Y-91000411D01*
X170883788Y-91018557D01*
X170917006Y-91038325D01*
X170953085Y-91051152D01*
X171001238Y-91058490D01*
X171070676Y-91061793D01*
X171162346Y-91062518D01*
X171287970Y-91059243D01*
X171382294Y-91047857D01*
X171452663Y-91026021D01*
X171506426Y-90991399D01*
X171550928Y-90941650D01*
X171553563Y-90937994D01*
X171580517Y-90888965D01*
X171593852Y-90829925D01*
X171597140Y-90754839D01*
X171597140Y-90632775D01*
X171715637Y-90632724D01*
X171781632Y-90631588D01*
X171820342Y-90624666D01*
X171843559Y-90606578D01*
X171863073Y-90571942D01*
X171867060Y-90563625D01*
X171885743Y-90524700D01*
X171897543Y-90494563D01*
X171898562Y-90472154D01*
X171884901Y-90456413D01*
X171852662Y-90446282D01*
X171797944Y-90440703D01*
X171716851Y-90438615D01*
X171605484Y-90438961D01*
X171459942Y-90440680D01*
X171416409Y-90441217D01*
X171266345Y-90443152D01*
X171168182Y-90444884D01*
X171168182Y-90632672D01*
X171251504Y-90633728D01*
X171306020Y-90638418D01*
X171341977Y-90649031D01*
X171369622Y-90667852D01*
X171383105Y-90680630D01*
X171422557Y-90732870D01*
X171425768Y-90779122D01*
X171393189Y-90826847D01*
X171391986Y-90828057D01*
X171366808Y-90847474D01*
X171332587Y-90859287D01*
X171279888Y-90865245D01*
X171199271Y-90867100D01*
X171181411Y-90867134D01*
X171070315Y-90862650D01*
X170993301Y-90848054D01*
X170946287Y-90821630D01*
X170925190Y-90781663D01*
X170923063Y-90758564D01*
X170933040Y-90703742D01*
X170965892Y-90666138D01*
X171025997Y-90643503D01*
X171117738Y-90633586D01*
X171168182Y-90632672D01*
X171168182Y-90444884D01*
X171150200Y-90445202D01*
X171062819Y-90447853D01*
X170999045Y-90451586D01*
X170953722Y-90456887D01*
X170921695Y-90464238D01*
X170897808Y-90474123D01*
X170876904Y-90487026D01*
X170869038Y-90492559D01*
X170794735Y-90565949D01*
X170752607Y-90658740D01*
X170740862Y-90766076D01*
X170752645Y-90859866D01*
X170752645Y-90859866D01*
G37*
X170752645Y-90859866D02*
X170789867Y-90934519D01*
X170858401Y-91000411D01*
X170883788Y-91018557D01*
X170917006Y-91038325D01*
X170953085Y-91051152D01*
X171001238Y-91058490D01*
X171070676Y-91061793D01*
X171162346Y-91062518D01*
X171287970Y-91059243D01*
X171382294Y-91047857D01*
X171452663Y-91026021D01*
X171506426Y-90991399D01*
X171550928Y-90941650D01*
X171553563Y-90937994D01*
X171580517Y-90888965D01*
X171593852Y-90829925D01*
X171597140Y-90754839D01*
X171597140Y-90632775D01*
X171715637Y-90632724D01*
X171781632Y-90631588D01*
X171820342Y-90624666D01*
X171843559Y-90606578D01*
X171863073Y-90571942D01*
X171867060Y-90563625D01*
X171885743Y-90524700D01*
X171897543Y-90494563D01*
X171898562Y-90472154D01*
X171884901Y-90456413D01*
X171852662Y-90446282D01*
X171797944Y-90440703D01*
X171716851Y-90438615D01*
X171605484Y-90438961D01*
X171459942Y-90440680D01*
X171416409Y-90441217D01*
X171266345Y-90443152D01*
X171168182Y-90444884D01*
X171168182Y-90632672D01*
X171251504Y-90633728D01*
X171306020Y-90638418D01*
X171341977Y-90649031D01*
X171369622Y-90667852D01*
X171383105Y-90680630D01*
X171422557Y-90732870D01*
X171425768Y-90779122D01*
X171393189Y-90826847D01*
X171391986Y-90828057D01*
X171366808Y-90847474D01*
X171332587Y-90859287D01*
X171279888Y-90865245D01*
X171199271Y-90867100D01*
X171181411Y-90867134D01*
X171070315Y-90862650D01*
X170993301Y-90848054D01*
X170946287Y-90821630D01*
X170925190Y-90781663D01*
X170923063Y-90758564D01*
X170933040Y-90703742D01*
X170965892Y-90666138D01*
X171025997Y-90643503D01*
X171117738Y-90633586D01*
X171168182Y-90632672D01*
X171168182Y-90444884D01*
X171150200Y-90445202D01*
X171062819Y-90447853D01*
X170999045Y-90451586D01*
X170953722Y-90456887D01*
X170921695Y-90464238D01*
X170897808Y-90474123D01*
X170876904Y-90487026D01*
X170869038Y-90492559D01*
X170794735Y-90565949D01*
X170752607Y-90658740D01*
X170740862Y-90766076D01*
X170752645Y-90859866D01*
G36*
X170763229Y-92362644D02*
X170799498Y-92425347D01*
X170835498Y-92468941D01*
X170873215Y-92500825D01*
X170919339Y-92522790D01*
X170980561Y-92536629D01*
X171063571Y-92544133D01*
X171175059Y-92547097D01*
X171255202Y-92547441D01*
X171550205Y-92547441D01*
X171624655Y-92381365D01*
X171301542Y-92371595D01*
X171180869Y-92367559D01*
X171093281Y-92363324D01*
X171032790Y-92358077D01*
X170993408Y-92351005D01*
X170969147Y-92341291D01*
X170954020Y-92328124D01*
X170950746Y-92323899D01*
X170925174Y-92259889D01*
X170935293Y-92195188D01*
X170962140Y-92156672D01*
X170981164Y-92141005D01*
X171006128Y-92130160D01*
X171043974Y-92123268D01*
X171101642Y-92119459D01*
X171186075Y-92117863D01*
X171274068Y-92117595D01*
X171384463Y-92117543D01*
X171462603Y-92115652D01*
X171515305Y-92109325D01*
X171549382Y-92095963D01*
X171571651Y-92072965D01*
X171588927Y-92037734D01*
X171606878Y-91990677D01*
X171626418Y-91939283D01*
X171279625Y-91945401D01*
X171154608Y-91947864D01*
X171062222Y-91950747D01*
X170996021Y-91954878D01*
X170949560Y-91961087D01*
X170916396Y-91970206D01*
X170890084Y-91983063D01*
X170866869Y-91998564D01*
X170792709Y-92073351D01*
X170749824Y-92164608D01*
X170739552Y-92263863D01*
X170763229Y-92362644D01*
X170763229Y-92362644D01*
G37*
X170763229Y-92362644D02*
X170799498Y-92425347D01*
X170835498Y-92468941D01*
X170873215Y-92500825D01*
X170919339Y-92522790D01*
X170980561Y-92536629D01*
X171063571Y-92544133D01*
X171175059Y-92547097D01*
X171255202Y-92547441D01*
X171550205Y-92547441D01*
X171624655Y-92381365D01*
X171301542Y-92371595D01*
X171180869Y-92367559D01*
X171093281Y-92363324D01*
X171032790Y-92358077D01*
X170993408Y-92351005D01*
X170969147Y-92341291D01*
X170954020Y-92328124D01*
X170950746Y-92323899D01*
X170925174Y-92259889D01*
X170935293Y-92195188D01*
X170962140Y-92156672D01*
X170981164Y-92141005D01*
X171006128Y-92130160D01*
X171043974Y-92123268D01*
X171101642Y-92119459D01*
X171186075Y-92117863D01*
X171274068Y-92117595D01*
X171384463Y-92117543D01*
X171462603Y-92115652D01*
X171515305Y-92109325D01*
X171549382Y-92095963D01*
X171571651Y-92072965D01*
X171588927Y-92037734D01*
X171606878Y-91990677D01*
X171626418Y-91939283D01*
X171279625Y-91945401D01*
X171154608Y-91947864D01*
X171062222Y-91950747D01*
X170996021Y-91954878D01*
X170949560Y-91961087D01*
X170916396Y-91970206D01*
X170890084Y-91983063D01*
X170866869Y-91998564D01*
X170792709Y-92073351D01*
X170749824Y-92164608D01*
X170739552Y-92263863D01*
X170763229Y-92362644D01*
G36*
X170755396Y-90107866D02*
X170803549Y-90199444D01*
X170881045Y-90267029D01*
X170930867Y-90291037D01*
X171005673Y-90309718D01*
X171100192Y-90319281D01*
X171203350Y-90320188D01*
X171304075Y-90312901D01*
X171391293Y-90297883D01*
X171453931Y-90275595D01*
X171464719Y-90268745D01*
X171545245Y-90187612D01*
X171593476Y-90091246D01*
X171607590Y-89986681D01*
X171585769Y-89880948D01*
X171572687Y-89851523D01*
X171532371Y-89794221D01*
X171478915Y-89743930D01*
X171472135Y-89739177D01*
X171439461Y-89719858D01*
X171404534Y-89707088D01*
X171358554Y-89699544D01*
X171292724Y-89695904D01*
X171198245Y-89694845D01*
X171177063Y-89694826D01*
X171170322Y-89694874D01*
X171170322Y-89890211D01*
X171259489Y-89891348D01*
X171318660Y-89895821D01*
X171356881Y-89905226D01*
X171383193Y-89921156D01*
X171391986Y-89929288D01*
X171425401Y-89976038D01*
X171423877Y-90021427D01*
X171394892Y-90067320D01*
X171363949Y-90094692D01*
X171318783Y-90110903D01*
X171247560Y-90120006D01*
X171239254Y-90120631D01*
X171110177Y-90122184D01*
X171014312Y-90105945D01*
X170952247Y-90072132D01*
X170924572Y-90020964D01*
X170923063Y-90002700D01*
X170930653Y-89954740D01*
X170956948Y-89921933D01*
X171007235Y-89901875D01*
X171086804Y-89892158D01*
X171170322Y-89890211D01*
X171170322Y-89694874D01*
X171076389Y-89695554D01*
X171006046Y-89698609D01*
X170957303Y-89705302D01*
X170921428Y-89716940D01*
X170889688Y-89734833D01*
X170883788Y-89738788D01*
X170804244Y-89805247D01*
X170758069Y-89877665D01*
X170739739Y-89965829D01*
X170738843Y-89995767D01*
X170755396Y-90107866D01*
X170755396Y-90107866D01*
G37*
X170755396Y-90107866D02*
X170803549Y-90199444D01*
X170881045Y-90267029D01*
X170930867Y-90291037D01*
X171005673Y-90309718D01*
X171100192Y-90319281D01*
X171203350Y-90320188D01*
X171304075Y-90312901D01*
X171391293Y-90297883D01*
X171453931Y-90275595D01*
X171464719Y-90268745D01*
X171545245Y-90187612D01*
X171593476Y-90091246D01*
X171607590Y-89986681D01*
X171585769Y-89880948D01*
X171572687Y-89851523D01*
X171532371Y-89794221D01*
X171478915Y-89743930D01*
X171472135Y-89739177D01*
X171439461Y-89719858D01*
X171404534Y-89707088D01*
X171358554Y-89699544D01*
X171292724Y-89695904D01*
X171198245Y-89694845D01*
X171177063Y-89694826D01*
X171170322Y-89694874D01*
X171170322Y-89890211D01*
X171259489Y-89891348D01*
X171318660Y-89895821D01*
X171356881Y-89905226D01*
X171383193Y-89921156D01*
X171391986Y-89929288D01*
X171425401Y-89976038D01*
X171423877Y-90021427D01*
X171394892Y-90067320D01*
X171363949Y-90094692D01*
X171318783Y-90110903D01*
X171247560Y-90120006D01*
X171239254Y-90120631D01*
X171110177Y-90122184D01*
X171014312Y-90105945D01*
X170952247Y-90072132D01*
X170924572Y-90020964D01*
X170923063Y-90002700D01*
X170930653Y-89954740D01*
X170956948Y-89921933D01*
X171007235Y-89901875D01*
X171086804Y-89892158D01*
X171170322Y-89890211D01*
X171170322Y-89694874D01*
X171076389Y-89695554D01*
X171006046Y-89698609D01*
X170957303Y-89705302D01*
X170921428Y-89716940D01*
X170889688Y-89734833D01*
X170883788Y-89738788D01*
X170804244Y-89805247D01*
X170758069Y-89877665D01*
X170739739Y-89965829D01*
X170738843Y-89995767D01*
X170755396Y-90107866D01*
G36*
X170767885Y-91625234D02*
X170819707Y-91702266D01*
X170894552Y-91761796D01*
X170989794Y-91797358D01*
X171059896Y-91804551D01*
X171089149Y-91803734D01*
X171111547Y-91796894D01*
X171131614Y-91778092D01*
X171153873Y-91741388D01*
X171182849Y-91680842D01*
X171223067Y-91590514D01*
X171223269Y-91590057D01*
X171261350Y-91506913D01*
X171295165Y-91438733D01*
X171321073Y-91392485D01*
X171335435Y-91375138D01*
X171335551Y-91375134D01*
X171366825Y-91390423D01*
X171401297Y-91426176D01*
X171426130Y-91467222D01*
X171431063Y-91488017D01*
X171414002Y-91544750D01*
X171371273Y-91593607D01*
X171324295Y-91617445D01*
X171289662Y-91640377D01*
X171250221Y-91685298D01*
X171216149Y-91738103D01*
X171197620Y-91784690D01*
X171196602Y-91794432D01*
X171213355Y-91805398D01*
X171256179Y-91806059D01*
X171313921Y-91798000D01*
X171375429Y-91782807D01*
X171429549Y-91762066D01*
X171431650Y-91761018D01*
X171518800Y-91698601D01*
X171578079Y-91617706D01*
X171607174Y-91525836D01*
X171603774Y-91430493D01*
X171565568Y-91339178D01*
X171562881Y-91335118D01*
X171497782Y-91263286D01*
X171412845Y-91216053D01*
X171301161Y-91189914D01*
X171269783Y-91186406D01*
X171121676Y-91180193D01*
X171052608Y-91187641D01*
X171052608Y-91375134D01*
X171095692Y-91377570D01*
X171108266Y-91390894D01*
X171098859Y-91424112D01*
X171076623Y-91476474D01*
X171048750Y-91535004D01*
X171048012Y-91536459D01*
X171021917Y-91586069D01*
X171004503Y-91605980D01*
X170986247Y-91601070D01*
X170962260Y-91580396D01*
X170927546Y-91527799D01*
X170924996Y-91471157D01*
X170950259Y-91420349D01*
X170998987Y-91385256D01*
X171052608Y-91375134D01*
X171052608Y-91187641D01*
X171003176Y-91192972D01*
X170909195Y-91225758D01*
X170843355Y-91271401D01*
X170776821Y-91353782D01*
X170743816Y-91444526D01*
X170741713Y-91537165D01*
X170767885Y-91625234D01*
X170767885Y-91625234D01*
G37*
X170767885Y-91625234D02*
X170819707Y-91702266D01*
X170894552Y-91761796D01*
X170989794Y-91797358D01*
X171059896Y-91804551D01*
X171089149Y-91803734D01*
X171111547Y-91796894D01*
X171131614Y-91778092D01*
X171153873Y-91741388D01*
X171182849Y-91680842D01*
X171223067Y-91590514D01*
X171223269Y-91590057D01*
X171261350Y-91506913D01*
X171295165Y-91438733D01*
X171321073Y-91392485D01*
X171335435Y-91375138D01*
X171335551Y-91375134D01*
X171366825Y-91390423D01*
X171401297Y-91426176D01*
X171426130Y-91467222D01*
X171431063Y-91488017D01*
X171414002Y-91544750D01*
X171371273Y-91593607D01*
X171324295Y-91617445D01*
X171289662Y-91640377D01*
X171250221Y-91685298D01*
X171216149Y-91738103D01*
X171197620Y-91784690D01*
X171196602Y-91794432D01*
X171213355Y-91805398D01*
X171256179Y-91806059D01*
X171313921Y-91798000D01*
X171375429Y-91782807D01*
X171429549Y-91762066D01*
X171431650Y-91761018D01*
X171518800Y-91698601D01*
X171578079Y-91617706D01*
X171607174Y-91525836D01*
X171603774Y-91430493D01*
X171565568Y-91339178D01*
X171562881Y-91335118D01*
X171497782Y-91263286D01*
X171412845Y-91216053D01*
X171301161Y-91189914D01*
X171269783Y-91186406D01*
X171121676Y-91180193D01*
X171052608Y-91187641D01*
X171052608Y-91375134D01*
X171095692Y-91377570D01*
X171108266Y-91390894D01*
X171098859Y-91424112D01*
X171076623Y-91476474D01*
X171048750Y-91535004D01*
X171048012Y-91536459D01*
X171021917Y-91586069D01*
X171004503Y-91605980D01*
X170986247Y-91601070D01*
X170962260Y-91580396D01*
X170927546Y-91527799D01*
X170924996Y-91471157D01*
X170950259Y-91420349D01*
X170998987Y-91385256D01*
X171052608Y-91375134D01*
X171052608Y-91187641D01*
X171003176Y-91192972D01*
X170909195Y-91225758D01*
X170843355Y-91271401D01*
X170776821Y-91353782D01*
X170743816Y-91444526D01*
X170741713Y-91537165D01*
X170767885Y-91625234D01*
G36*
X170660260Y-93250826D02*
X170740120Y-93256552D01*
X170787179Y-93263129D01*
X170807706Y-93272242D01*
X170807969Y-93285578D01*
X170805518Y-93289903D01*
X170787776Y-93347424D01*
X170788812Y-93422248D01*
X170807050Y-93498319D01*
X170830645Y-93545898D01*
X170868338Y-93594682D01*
X170910995Y-93630344D01*
X170965197Y-93654825D01*
X171037524Y-93670067D01*
X171134559Y-93678010D01*
X171262882Y-93680596D01*
X171287498Y-93680642D01*
X171564010Y-93680672D01*
X171585460Y-93619141D01*
X171600052Y-93575439D01*
X171606846Y-93551462D01*
X171606909Y-93550757D01*
X171588485Y-93548395D01*
X171537666Y-93546386D01*
X171461133Y-93544881D01*
X171365570Y-93544033D01*
X171307469Y-93543903D01*
X171192911Y-93543631D01*
X171110807Y-93542232D01*
X171054533Y-93538829D01*
X171017466Y-93532547D01*
X170992984Y-93522509D01*
X170974465Y-93507841D01*
X170965546Y-93498682D01*
X170929606Y-93435769D01*
X170926915Y-93367116D01*
X170957310Y-93304828D01*
X170968284Y-93293309D01*
X170988919Y-93276413D01*
X171013396Y-93264694D01*
X171048787Y-93257213D01*
X171102166Y-93253034D01*
X171180606Y-93251217D01*
X171288757Y-93250826D01*
X171564010Y-93250826D01*
X171585460Y-93189295D01*
X171600052Y-93145593D01*
X171606846Y-93121616D01*
X171606909Y-93120910D01*
X171588209Y-93119106D01*
X171535462Y-93117480D01*
X171453697Y-93116097D01*
X171347945Y-93115022D01*
X171223234Y-93114320D01*
X171084595Y-93114057D01*
X170549946Y-93114057D01*
X170496376Y-93241057D01*
X170660260Y-93250826D01*
X170660260Y-93250826D01*
G37*
X170660260Y-93250826D02*
X170740120Y-93256552D01*
X170787179Y-93263129D01*
X170807706Y-93272242D01*
X170807969Y-93285578D01*
X170805518Y-93289903D01*
X170787776Y-93347424D01*
X170788812Y-93422248D01*
X170807050Y-93498319D01*
X170830645Y-93545898D01*
X170868338Y-93594682D01*
X170910995Y-93630344D01*
X170965197Y-93654825D01*
X171037524Y-93670067D01*
X171134559Y-93678010D01*
X171262882Y-93680596D01*
X171287498Y-93680642D01*
X171564010Y-93680672D01*
X171585460Y-93619141D01*
X171600052Y-93575439D01*
X171606846Y-93551462D01*
X171606909Y-93550757D01*
X171588485Y-93548395D01*
X171537666Y-93546386D01*
X171461133Y-93544881D01*
X171365570Y-93544033D01*
X171307469Y-93543903D01*
X171192911Y-93543631D01*
X171110807Y-93542232D01*
X171054533Y-93538829D01*
X171017466Y-93532547D01*
X170992984Y-93522509D01*
X170974465Y-93507841D01*
X170965546Y-93498682D01*
X170929606Y-93435769D01*
X170926915Y-93367116D01*
X170957310Y-93304828D01*
X170968284Y-93293309D01*
X170988919Y-93276413D01*
X171013396Y-93264694D01*
X171048787Y-93257213D01*
X171102166Y-93253034D01*
X171180606Y-93251217D01*
X171288757Y-93250826D01*
X171564010Y-93250826D01*
X171585460Y-93189295D01*
X171600052Y-93145593D01*
X171606846Y-93121616D01*
X171606909Y-93120910D01*
X171588209Y-93119106D01*
X171535462Y-93117480D01*
X171453697Y-93116097D01*
X171347945Y-93115022D01*
X171223234Y-93114320D01*
X171084595Y-93114057D01*
X170549946Y-93114057D01*
X170496376Y-93241057D01*
X170660260Y-93250826D01*
G36*
X170794443Y-94144481D02*
X170822873Y-94221040D01*
X170823419Y-94221916D01*
X170858267Y-94269265D01*
X170898992Y-94304221D01*
X170952065Y-94328805D01*
X171023954Y-94345042D01*
X171121132Y-94354955D01*
X171250068Y-94360566D01*
X171268438Y-94361057D01*
X171545427Y-94368121D01*
X171576168Y-94308675D01*
X171596942Y-94265661D01*
X171606786Y-94239690D01*
X171606909Y-94238489D01*
X171588746Y-94233994D01*
X171539752Y-94230424D01*
X171468171Y-94228228D01*
X171410208Y-94227749D01*
X171316310Y-94227738D01*
X171257343Y-94223446D01*
X171229219Y-94208483D01*
X171227846Y-94176462D01*
X171249138Y-94120994D01*
X171288276Y-94037249D01*
X171320783Y-93975669D01*
X171348985Y-93943997D01*
X171379722Y-93934686D01*
X171381244Y-93934672D01*
X171434194Y-93950037D01*
X171462800Y-93995527D01*
X171466943Y-94065146D01*
X171466224Y-94115293D01*
X171480667Y-94141734D01*
X171515358Y-94158223D01*
X171559556Y-94167713D01*
X171584633Y-94154037D01*
X171588222Y-94148887D01*
X171602636Y-94100405D01*
X171604677Y-94032511D01*
X171595123Y-93962592D01*
X171577662Y-93913048D01*
X171519504Y-93844550D01*
X171438548Y-93805614D01*
X171375300Y-93797903D01*
X171318251Y-93803787D01*
X171271682Y-93825081D01*
X171230321Y-93867245D01*
X171188895Y-93935739D01*
X171142133Y-94036024D01*
X171139490Y-94042134D01*
X171097757Y-94132470D01*
X171063531Y-94188215D01*
X171032775Y-94212109D01*
X171001451Y-94206893D01*
X170965523Y-94175308D01*
X170957256Y-94165863D01*
X170925198Y-94102597D01*
X170926547Y-94037044D01*
X170957978Y-93979952D01*
X171016164Y-93942073D01*
X171027586Y-93938554D01*
X171082977Y-93904280D01*
X171109658Y-93860789D01*
X171136100Y-93797903D01*
X171067688Y-93797903D01*
X170968250Y-93817032D01*
X170877042Y-93873811D01*
X170846529Y-93903358D01*
X170807368Y-93970522D01*
X170789640Y-94055936D01*
X170794443Y-94144481D01*
X170794443Y-94144481D01*
G37*
X170794443Y-94144481D02*
X170822873Y-94221040D01*
X170823419Y-94221916D01*
X170858267Y-94269265D01*
X170898992Y-94304221D01*
X170952065Y-94328805D01*
X171023954Y-94345042D01*
X171121132Y-94354955D01*
X171250068Y-94360566D01*
X171268438Y-94361057D01*
X171545427Y-94368121D01*
X171576168Y-94308675D01*
X171596942Y-94265661D01*
X171606786Y-94239690D01*
X171606909Y-94238489D01*
X171588746Y-94233994D01*
X171539752Y-94230424D01*
X171468171Y-94228228D01*
X171410208Y-94227749D01*
X171316310Y-94227738D01*
X171257343Y-94223446D01*
X171229219Y-94208483D01*
X171227846Y-94176462D01*
X171249138Y-94120994D01*
X171288276Y-94037249D01*
X171320783Y-93975669D01*
X171348985Y-93943997D01*
X171379722Y-93934686D01*
X171381244Y-93934672D01*
X171434194Y-93950037D01*
X171462800Y-93995527D01*
X171466943Y-94065146D01*
X171466224Y-94115293D01*
X171480667Y-94141734D01*
X171515358Y-94158223D01*
X171559556Y-94167713D01*
X171584633Y-94154037D01*
X171588222Y-94148887D01*
X171602636Y-94100405D01*
X171604677Y-94032511D01*
X171595123Y-93962592D01*
X171577662Y-93913048D01*
X171519504Y-93844550D01*
X171438548Y-93805614D01*
X171375300Y-93797903D01*
X171318251Y-93803787D01*
X171271682Y-93825081D01*
X171230321Y-93867245D01*
X171188895Y-93935739D01*
X171142133Y-94036024D01*
X171139490Y-94042134D01*
X171097757Y-94132470D01*
X171063531Y-94188215D01*
X171032775Y-94212109D01*
X171001451Y-94206893D01*
X170965523Y-94175308D01*
X170957256Y-94165863D01*
X170925198Y-94102597D01*
X170926547Y-94037044D01*
X170957978Y-93979952D01*
X171016164Y-93942073D01*
X171027586Y-93938554D01*
X171082977Y-93904280D01*
X171109658Y-93860789D01*
X171136100Y-93797903D01*
X171067688Y-93797903D01*
X170968250Y-93817032D01*
X170877042Y-93873811D01*
X170846529Y-93903358D01*
X170807368Y-93970522D01*
X170789640Y-94055936D01*
X170794443Y-94144481D01*
G36*
X170792810Y-94804342D02*
X170825561Y-94893097D01*
X170883490Y-94965002D01*
X170924268Y-94993124D01*
X170999094Y-95023782D01*
X171053198Y-95023145D01*
X171089586Y-94990967D01*
X171095773Y-94979061D01*
X171115065Y-94927655D01*
X171110122Y-94901402D01*
X171077727Y-94892510D01*
X171059832Y-94892057D01*
X170993999Y-94875777D01*
X170947947Y-94833345D01*
X170925704Y-94774368D01*
X170931301Y-94708455D01*
X170960369Y-94654875D01*
X170976950Y-94636778D01*
X170997065Y-94623951D01*
X171027472Y-94615286D01*
X171074928Y-94609676D01*
X171146190Y-94606015D01*
X171248015Y-94603195D01*
X171280255Y-94602464D01*
X171390550Y-94599800D01*
X171468176Y-94596772D01*
X171519536Y-94592230D01*
X171551030Y-94585026D01*
X171569060Y-94574013D01*
X171580028Y-94558040D01*
X171584873Y-94547814D01*
X171601441Y-94504386D01*
X171606909Y-94478822D01*
X171588647Y-94470375D01*
X171533436Y-94465219D01*
X171440639Y-94463326D01*
X171309618Y-94464669D01*
X171289409Y-94465087D01*
X171169873Y-94468038D01*
X171082589Y-94471528D01*
X171020731Y-94476494D01*
X170977476Y-94483873D01*
X170946000Y-94494604D01*
X170919479Y-94509625D01*
X170908115Y-94517482D01*
X170857832Y-94562533D01*
X170818721Y-94612920D01*
X170815307Y-94619088D01*
X170788352Y-94709438D01*
X170792810Y-94804342D01*
X170792810Y-94804342D01*
G37*
X170792810Y-94804342D02*
X170825561Y-94893097D01*
X170883490Y-94965002D01*
X170924268Y-94993124D01*
X170999094Y-95023782D01*
X171053198Y-95023145D01*
X171089586Y-94990967D01*
X171095773Y-94979061D01*
X171115065Y-94927655D01*
X171110122Y-94901402D01*
X171077727Y-94892510D01*
X171059832Y-94892057D01*
X170993999Y-94875777D01*
X170947947Y-94833345D01*
X170925704Y-94774368D01*
X170931301Y-94708455D01*
X170960369Y-94654875D01*
X170976950Y-94636778D01*
X170997065Y-94623951D01*
X171027472Y-94615286D01*
X171074928Y-94609676D01*
X171146190Y-94606015D01*
X171248015Y-94603195D01*
X171280255Y-94602464D01*
X171390550Y-94599800D01*
X171468176Y-94596772D01*
X171519536Y-94592230D01*
X171551030Y-94585026D01*
X171569060Y-94574013D01*
X171580028Y-94558040D01*
X171584873Y-94547814D01*
X171601441Y-94504386D01*
X171606909Y-94478822D01*
X171588647Y-94470375D01*
X171533436Y-94465219D01*
X171440639Y-94463326D01*
X171309618Y-94464669D01*
X171289409Y-94465087D01*
X171169873Y-94468038D01*
X171082589Y-94471528D01*
X171020731Y-94476494D01*
X170977476Y-94483873D01*
X170946000Y-94494604D01*
X170919479Y-94509625D01*
X170908115Y-94517482D01*
X170857832Y-94562533D01*
X170818721Y-94612920D01*
X170815307Y-94619088D01*
X170788352Y-94709438D01*
X170792810Y-94804342D01*
G36*
X170948429Y-95693061D02*
X171094460Y-95692813D01*
X171206795Y-95691852D01*
X171290818Y-95689774D01*
X171351909Y-95686173D01*
X171395449Y-95680645D01*
X171426819Y-95672784D01*
X171451402Y-95662187D01*
X171465434Y-95654162D01*
X171541528Y-95587708D01*
X171589224Y-95503450D01*
X171606339Y-95410229D01*
X171590686Y-95316880D01*
X171562558Y-95261292D01*
X171513900Y-95202937D01*
X171454473Y-95163166D01*
X171376647Y-95139170D01*
X171272792Y-95128141D01*
X171196602Y-95126579D01*
X171191126Y-95126789D01*
X171191126Y-95263288D01*
X171278495Y-95264121D01*
X171336332Y-95267941D01*
X171374169Y-95276726D01*
X171401538Y-95292454D01*
X171422182Y-95311246D01*
X171462030Y-95374355D01*
X171465435Y-95442117D01*
X171432165Y-95506159D01*
X171427657Y-95511144D01*
X171404207Y-95532419D01*
X171376306Y-95545759D01*
X171334781Y-95552981D01*
X171270456Y-95555903D01*
X171199340Y-95556365D01*
X171109998Y-95555363D01*
X171050398Y-95551218D01*
X171011229Y-95542216D01*
X170983180Y-95526647D01*
X170968284Y-95513882D01*
X170930715Y-95454580D01*
X170926197Y-95386281D01*
X170954893Y-95321090D01*
X170965546Y-95308508D01*
X170989203Y-95287091D01*
X171017391Y-95273724D01*
X171059385Y-95266546D01*
X171124459Y-95263699D01*
X171191126Y-95263288D01*
X171191126Y-95126789D01*
X171073905Y-95131302D01*
X170981717Y-95147342D01*
X170912409Y-95177508D01*
X170858351Y-95224609D01*
X170830645Y-95261292D01*
X170800712Y-95327970D01*
X170786818Y-95405252D01*
X170790537Y-95477090D01*
X170805540Y-95517288D01*
X170809810Y-95533062D01*
X170793890Y-95543530D01*
X170751229Y-95550836D01*
X170686246Y-95556365D01*
X170613872Y-95562417D01*
X170570327Y-95570824D01*
X170545427Y-95586121D01*
X170528985Y-95612844D01*
X170521704Y-95629634D01*
X170495103Y-95693134D01*
X170948429Y-95693061D01*
X170948429Y-95693061D01*
G37*
X170948429Y-95693061D02*
X171094460Y-95692813D01*
X171206795Y-95691852D01*
X171290818Y-95689774D01*
X171351909Y-95686173D01*
X171395449Y-95680645D01*
X171426819Y-95672784D01*
X171451402Y-95662187D01*
X171465434Y-95654162D01*
X171541528Y-95587708D01*
X171589224Y-95503450D01*
X171606339Y-95410229D01*
X171590686Y-95316880D01*
X171562558Y-95261292D01*
X171513900Y-95202937D01*
X171454473Y-95163166D01*
X171376647Y-95139170D01*
X171272792Y-95128141D01*
X171196602Y-95126579D01*
X171191126Y-95126789D01*
X171191126Y-95263288D01*
X171278495Y-95264121D01*
X171336332Y-95267941D01*
X171374169Y-95276726D01*
X171401538Y-95292454D01*
X171422182Y-95311246D01*
X171462030Y-95374355D01*
X171465435Y-95442117D01*
X171432165Y-95506159D01*
X171427657Y-95511144D01*
X171404207Y-95532419D01*
X171376306Y-95545759D01*
X171334781Y-95552981D01*
X171270456Y-95555903D01*
X171199340Y-95556365D01*
X171109998Y-95555363D01*
X171050398Y-95551218D01*
X171011229Y-95542216D01*
X170983180Y-95526647D01*
X170968284Y-95513882D01*
X170930715Y-95454580D01*
X170926197Y-95386281D01*
X170954893Y-95321090D01*
X170965546Y-95308508D01*
X170989203Y-95287091D01*
X171017391Y-95273724D01*
X171059385Y-95266546D01*
X171124459Y-95263699D01*
X171191126Y-95263288D01*
X171191126Y-95126789D01*
X171073905Y-95131302D01*
X170981717Y-95147342D01*
X170912409Y-95177508D01*
X170858351Y-95224609D01*
X170830645Y-95261292D01*
X170800712Y-95327970D01*
X170786818Y-95405252D01*
X170790537Y-95477090D01*
X170805540Y-95517288D01*
X170809810Y-95533062D01*
X170793890Y-95543530D01*
X170751229Y-95550836D01*
X170686246Y-95556365D01*
X170613872Y-95562417D01*
X170570327Y-95570824D01*
X170545427Y-95586121D01*
X170528985Y-95612844D01*
X170521704Y-95629634D01*
X170495103Y-95693134D01*
X170948429Y-95693061D01*
G36*
X170804802Y-96486909D02*
X170856208Y-96489891D01*
X170934332Y-96492227D01*
X171032997Y-96493729D01*
X171136483Y-96494211D01*
X171486673Y-96494211D01*
X171548503Y-96432381D01*
X171586602Y-96389773D01*
X171602035Y-96352370D01*
X171601058Y-96301250D01*
X171598573Y-96280958D01*
X171591340Y-96217534D01*
X171587195Y-96165075D01*
X171586812Y-96152288D01*
X171589316Y-96109179D01*
X171595602Y-96047524D01*
X171598573Y-96023618D01*
X171603168Y-95964902D01*
X171593186Y-95925444D01*
X171562368Y-95886318D01*
X171548503Y-95872195D01*
X171486673Y-95810365D01*
X170831643Y-95810365D01*
X170808969Y-95860130D01*
X170792174Y-95902982D01*
X170786294Y-95928053D01*
X170804876Y-95934481D01*
X170856795Y-95940489D01*
X170936312Y-95945677D01*
X171037686Y-95949644D01*
X171123332Y-95951557D01*
X171460371Y-95956903D01*
X171466965Y-96003540D01*
X171462354Y-96045956D01*
X171447427Y-96066740D01*
X171419517Y-96072550D01*
X171360065Y-96077510D01*
X171276606Y-96081226D01*
X171176672Y-96083304D01*
X171125244Y-96083604D01*
X170829194Y-96083903D01*
X170807744Y-96145434D01*
X170793160Y-96188984D01*
X170786359Y-96212674D01*
X170786294Y-96213357D01*
X170804782Y-96215734D01*
X170856046Y-96218346D01*
X170933789Y-96220975D01*
X171031714Y-96223401D01*
X171123332Y-96225095D01*
X171460371Y-96230441D01*
X171460371Y-96347672D01*
X171152886Y-96353052D01*
X170845401Y-96358431D01*
X170815847Y-96415581D01*
X170795553Y-96457777D01*
X170786344Y-96482750D01*
X170786294Y-96483471D01*
X170804802Y-96486909D01*
X170804802Y-96486909D01*
G37*
X170804802Y-96486909D02*
X170856208Y-96489891D01*
X170934332Y-96492227D01*
X171032997Y-96493729D01*
X171136483Y-96494211D01*
X171486673Y-96494211D01*
X171548503Y-96432381D01*
X171586602Y-96389773D01*
X171602035Y-96352370D01*
X171601058Y-96301250D01*
X171598573Y-96280958D01*
X171591340Y-96217534D01*
X171587195Y-96165075D01*
X171586812Y-96152288D01*
X171589316Y-96109179D01*
X171595602Y-96047524D01*
X171598573Y-96023618D01*
X171603168Y-95964902D01*
X171593186Y-95925444D01*
X171562368Y-95886318D01*
X171548503Y-95872195D01*
X171486673Y-95810365D01*
X170831643Y-95810365D01*
X170808969Y-95860130D01*
X170792174Y-95902982D01*
X170786294Y-95928053D01*
X170804876Y-95934481D01*
X170856795Y-95940489D01*
X170936312Y-95945677D01*
X171037686Y-95949644D01*
X171123332Y-95951557D01*
X171460371Y-95956903D01*
X171466965Y-96003540D01*
X171462354Y-96045956D01*
X171447427Y-96066740D01*
X171419517Y-96072550D01*
X171360065Y-96077510D01*
X171276606Y-96081226D01*
X171176672Y-96083304D01*
X171125244Y-96083604D01*
X170829194Y-96083903D01*
X170807744Y-96145434D01*
X170793160Y-96188984D01*
X170786359Y-96212674D01*
X170786294Y-96213357D01*
X170804782Y-96215734D01*
X170856046Y-96218346D01*
X170933789Y-96220975D01*
X171031714Y-96223401D01*
X171123332Y-96225095D01*
X171460371Y-96230441D01*
X171460371Y-96347672D01*
X171152886Y-96353052D01*
X170845401Y-96358431D01*
X170815847Y-96415581D01*
X170795553Y-96457777D01*
X170786344Y-96482750D01*
X170786294Y-96483471D01*
X170804802Y-96486909D01*
G36*
X170801668Y-96978313D02*
X170827257Y-97034570D01*
X170858264Y-97078727D01*
X170892935Y-97111081D01*
X170937660Y-97133418D01*
X170998832Y-97147526D01*
X171082841Y-97155191D01*
X171196080Y-97158200D01*
X171270649Y-97158518D01*
X171561560Y-97158518D01*
X171584235Y-97108753D01*
X171600807Y-97069556D01*
X171606909Y-97050137D01*
X171588750Y-97046422D01*
X171539788Y-97043475D01*
X171468293Y-97041671D01*
X171411525Y-97041288D01*
X171329511Y-97039641D01*
X171264449Y-97035202D01*
X171224607Y-97028720D01*
X171216140Y-97023570D01*
X171224786Y-96988957D01*
X171246963Y-96934620D01*
X171277026Y-96871702D01*
X171309332Y-96811348D01*
X171338238Y-96764701D01*
X171358101Y-96742906D01*
X171358315Y-96742819D01*
X171395075Y-96744694D01*
X171430166Y-96761505D01*
X171458668Y-96791019D01*
X171468201Y-96834096D01*
X171467090Y-96870912D01*
X171466273Y-96923054D01*
X171478489Y-96950424D01*
X171510764Y-96966862D01*
X171516850Y-96968935D01*
X171562879Y-96976061D01*
X171590827Y-96957004D01*
X171604147Y-96907333D01*
X171606610Y-96853677D01*
X171588350Y-96757122D01*
X171562271Y-96707139D01*
X171501008Y-96645409D01*
X171425810Y-96612670D01*
X171346351Y-96609733D01*
X171272307Y-96637404D01*
X171225909Y-96679027D01*
X171199933Y-96720584D01*
X171167047Y-96785902D01*
X171133697Y-96862018D01*
X171128601Y-96874706D01*
X171091705Y-96958313D01*
X171059186Y-97006510D01*
X171026858Y-97022010D01*
X170990534Y-97007530D01*
X170962140Y-96982672D01*
X170927179Y-96923919D01*
X170924557Y-96859273D01*
X170951498Y-96799988D01*
X171005228Y-96757319D01*
X171019090Y-96751719D01*
X171070076Y-96719113D01*
X171107927Y-96671510D01*
X171138990Y-96611441D01*
X171050908Y-96611441D01*
X170997091Y-96614977D01*
X170954674Y-96630136D01*
X170909419Y-96663748D01*
X170874560Y-96696015D01*
X170825202Y-96746189D01*
X170798687Y-96785173D01*
X170788051Y-96827044D01*
X170786294Y-96874440D01*
X170801668Y-96978313D01*
X170801668Y-96978313D01*
G37*
X170801668Y-96978313D02*
X170827257Y-97034570D01*
X170858264Y-97078727D01*
X170892935Y-97111081D01*
X170937660Y-97133418D01*
X170998832Y-97147526D01*
X171082841Y-97155191D01*
X171196080Y-97158200D01*
X171270649Y-97158518D01*
X171561560Y-97158518D01*
X171584235Y-97108753D01*
X171600807Y-97069556D01*
X171606909Y-97050137D01*
X171588750Y-97046422D01*
X171539788Y-97043475D01*
X171468293Y-97041671D01*
X171411525Y-97041288D01*
X171329511Y-97039641D01*
X171264449Y-97035202D01*
X171224607Y-97028720D01*
X171216140Y-97023570D01*
X171224786Y-96988957D01*
X171246963Y-96934620D01*
X171277026Y-96871702D01*
X171309332Y-96811348D01*
X171338238Y-96764701D01*
X171358101Y-96742906D01*
X171358315Y-96742819D01*
X171395075Y-96744694D01*
X171430166Y-96761505D01*
X171458668Y-96791019D01*
X171468201Y-96834096D01*
X171467090Y-96870912D01*
X171466273Y-96923054D01*
X171478489Y-96950424D01*
X171510764Y-96966862D01*
X171516850Y-96968935D01*
X171562879Y-96976061D01*
X171590827Y-96957004D01*
X171604147Y-96907333D01*
X171606610Y-96853677D01*
X171588350Y-96757122D01*
X171562271Y-96707139D01*
X171501008Y-96645409D01*
X171425810Y-96612670D01*
X171346351Y-96609733D01*
X171272307Y-96637404D01*
X171225909Y-96679027D01*
X171199933Y-96720584D01*
X171167047Y-96785902D01*
X171133697Y-96862018D01*
X171128601Y-96874706D01*
X171091705Y-96958313D01*
X171059186Y-97006510D01*
X171026858Y-97022010D01*
X170990534Y-97007530D01*
X170962140Y-96982672D01*
X170927179Y-96923919D01*
X170924557Y-96859273D01*
X170951498Y-96799988D01*
X171005228Y-96757319D01*
X171019090Y-96751719D01*
X171070076Y-96719113D01*
X171107927Y-96671510D01*
X171138990Y-96611441D01*
X171050908Y-96611441D01*
X170997091Y-96614977D01*
X170954674Y-96630136D01*
X170909419Y-96663748D01*
X170874560Y-96696015D01*
X170825202Y-96746189D01*
X170798687Y-96785173D01*
X170788051Y-96827044D01*
X170786294Y-96874440D01*
X170801668Y-96978313D01*
G36*
X170804922Y-97661787D02*
X170815128Y-97685141D01*
X170859274Y-97740882D01*
X170923107Y-97788549D01*
X170991227Y-97818028D01*
X171024810Y-97822826D01*
X171071696Y-97806740D01*
X171096505Y-97771455D01*
X171111527Y-97733624D01*
X171114295Y-97716301D01*
X171094206Y-97707866D01*
X171050491Y-97691210D01*
X171030738Y-97683903D01*
X170962411Y-97642928D01*
X170928331Y-97583602D01*
X170929379Y-97507532D01*
X170930721Y-97501898D01*
X170949976Y-97461285D01*
X170987515Y-97431428D01*
X171047949Y-97411035D01*
X171135891Y-97398816D01*
X171255953Y-97393480D01*
X171319838Y-97392980D01*
X171420543Y-97392732D01*
X171489194Y-97391106D01*
X171532813Y-97386781D01*
X171558422Y-97378434D01*
X171573043Y-97364745D01*
X171583698Y-97344391D01*
X171584235Y-97343214D01*
X171600807Y-97304018D01*
X171606909Y-97284599D01*
X171588459Y-97281615D01*
X171537463Y-97279061D01*
X171460448Y-97277120D01*
X171363945Y-97275977D01*
X171293324Y-97275749D01*
X171156665Y-97276912D01*
X171052991Y-97281459D01*
X170976248Y-97290979D01*
X170920386Y-97307061D01*
X170879352Y-97331293D01*
X170847094Y-97365266D01*
X170824580Y-97398813D01*
X170794616Y-97479479D01*
X170787858Y-97573361D01*
X170804922Y-97661787D01*
X170804922Y-97661787D01*
G37*
X170804922Y-97661787D02*
X170815128Y-97685141D01*
X170859274Y-97740882D01*
X170923107Y-97788549D01*
X170991227Y-97818028D01*
X171024810Y-97822826D01*
X171071696Y-97806740D01*
X171096505Y-97771455D01*
X171111527Y-97733624D01*
X171114295Y-97716301D01*
X171094206Y-97707866D01*
X171050491Y-97691210D01*
X171030738Y-97683903D01*
X170962411Y-97642928D01*
X170928331Y-97583602D01*
X170929379Y-97507532D01*
X170930721Y-97501898D01*
X170949976Y-97461285D01*
X170987515Y-97431428D01*
X171047949Y-97411035D01*
X171135891Y-97398816D01*
X171255953Y-97393480D01*
X171319838Y-97392980D01*
X171420543Y-97392732D01*
X171489194Y-97391106D01*
X171532813Y-97386781D01*
X171558422Y-97378434D01*
X171573043Y-97364745D01*
X171583698Y-97344391D01*
X171584235Y-97343214D01*
X171600807Y-97304018D01*
X171606909Y-97284599D01*
X171588459Y-97281615D01*
X171537463Y-97279061D01*
X171460448Y-97277120D01*
X171363945Y-97275977D01*
X171293324Y-97275749D01*
X171156665Y-97276912D01*
X171052991Y-97281459D01*
X170976248Y-97290979D01*
X170920386Y-97307061D01*
X170879352Y-97331293D01*
X170847094Y-97365266D01*
X170824580Y-97398813D01*
X170794616Y-97479479D01*
X170787858Y-97573361D01*
X170804922Y-97661787D01*
G36*
X170815978Y-98336204D02*
X170866501Y-98413508D01*
X170911730Y-98450794D01*
X170993803Y-98480333D01*
X171058747Y-98482679D01*
X171145585Y-98477365D01*
X171233243Y-98277095D01*
X171278027Y-98179719D01*
X171314053Y-98116093D01*
X171345257Y-98083009D01*
X171375576Y-98077260D01*
X171408945Y-98095638D01*
X171431063Y-98115903D01*
X171466533Y-98174869D01*
X171469019Y-98239004D01*
X171441375Y-98297906D01*
X171386460Y-98341177D01*
X171367068Y-98348916D01*
X171306504Y-98385986D01*
X171280692Y-98428634D01*
X171258611Y-98487134D01*
X171342324Y-98487134D01*
X171399290Y-98481962D01*
X171447329Y-98461703D01*
X171502486Y-98419242D01*
X171509654Y-98412931D01*
X171558725Y-98365700D01*
X171585060Y-98325101D01*
X171597175Y-98274308D01*
X171601143Y-98232200D01*
X171602131Y-98156882D01*
X171589606Y-98103266D01*
X171571009Y-98069818D01*
X171530115Y-98017248D01*
X171485888Y-97980859D01*
X171430266Y-97957830D01*
X171355187Y-97945339D01*
X171252589Y-97940567D01*
X171200516Y-97940186D01*
X171138088Y-97941481D01*
X171138088Y-98059451D01*
X171171578Y-98060819D01*
X171177063Y-98064229D01*
X171169612Y-98086733D01*
X171149893Y-98135162D01*
X171121858Y-98199888D01*
X171115832Y-98213423D01*
X171074236Y-98295224D01*
X171037678Y-98340292D01*
X171003436Y-98350197D01*
X170968788Y-98326506D01*
X170953479Y-98306940D01*
X170922861Y-98236340D01*
X170927920Y-98170260D01*
X170965291Y-98114939D01*
X171031613Y-98076616D01*
X171084256Y-98064329D01*
X171138088Y-98059451D01*
X171138088Y-97941481D01*
X171078860Y-97942710D01*
X170988850Y-97952012D01*
X170923307Y-97970440D01*
X170875052Y-98000340D01*
X170836907Y-98044060D01*
X170824580Y-98063121D01*
X170792476Y-98149706D01*
X170790456Y-98244502D01*
X170815978Y-98336204D01*
X170815978Y-98336204D01*
G37*
X170815978Y-98336204D02*
X170866501Y-98413508D01*
X170911730Y-98450794D01*
X170993803Y-98480333D01*
X171058747Y-98482679D01*
X171145585Y-98477365D01*
X171233243Y-98277095D01*
X171278027Y-98179719D01*
X171314053Y-98116093D01*
X171345257Y-98083009D01*
X171375576Y-98077260D01*
X171408945Y-98095638D01*
X171431063Y-98115903D01*
X171466533Y-98174869D01*
X171469019Y-98239004D01*
X171441375Y-98297906D01*
X171386460Y-98341177D01*
X171367068Y-98348916D01*
X171306504Y-98385986D01*
X171280692Y-98428634D01*
X171258611Y-98487134D01*
X171342324Y-98487134D01*
X171399290Y-98481962D01*
X171447329Y-98461703D01*
X171502486Y-98419242D01*
X171509654Y-98412931D01*
X171558725Y-98365700D01*
X171585060Y-98325101D01*
X171597175Y-98274308D01*
X171601143Y-98232200D01*
X171602131Y-98156882D01*
X171589606Y-98103266D01*
X171571009Y-98069818D01*
X171530115Y-98017248D01*
X171485888Y-97980859D01*
X171430266Y-97957830D01*
X171355187Y-97945339D01*
X171252589Y-97940567D01*
X171200516Y-97940186D01*
X171138088Y-97941481D01*
X171138088Y-98059451D01*
X171171578Y-98060819D01*
X171177063Y-98064229D01*
X171169612Y-98086733D01*
X171149893Y-98135162D01*
X171121858Y-98199888D01*
X171115832Y-98213423D01*
X171074236Y-98295224D01*
X171037678Y-98340292D01*
X171003436Y-98350197D01*
X170968788Y-98326506D01*
X170953479Y-98306940D01*
X170922861Y-98236340D01*
X170927920Y-98170260D01*
X170965291Y-98114939D01*
X171031613Y-98076616D01*
X171084256Y-98064329D01*
X171138088Y-98059451D01*
X171138088Y-97941481D01*
X171078860Y-97942710D01*
X170988850Y-97952012D01*
X170923307Y-97970440D01*
X170875052Y-98000340D01*
X170836907Y-98044060D01*
X170824580Y-98063121D01*
X170792476Y-98149706D01*
X170790456Y-98244502D01*
X170815978Y-98336204D01*
G36*
X164455916Y-94230858D02*
X164456495Y-94336592D01*
X164458062Y-94413112D01*
X164461112Y-94465352D01*
X164466136Y-94498243D01*
X164473629Y-94516717D01*
X164484084Y-94525707D01*
X164497993Y-94530143D01*
X164499794Y-94530574D01*
X164532285Y-94537313D01*
X164596392Y-94549788D01*
X164685291Y-94566699D01*
X164792159Y-94586751D01*
X164910173Y-94608644D01*
X164914318Y-94609409D01*
X165029971Y-94631339D01*
X165132154Y-94651857D01*
X165214738Y-94669639D01*
X165271596Y-94683361D01*
X165296598Y-94691698D01*
X165297041Y-94692096D01*
X165309250Y-94716657D01*
X165329596Y-94767295D01*
X165353685Y-94833075D01*
X165353814Y-94833441D01*
X165384958Y-94916297D01*
X165424631Y-95013980D01*
X165464521Y-95106057D01*
X165466493Y-95110414D01*
X165534560Y-95260387D01*
X165307779Y-95592478D01*
X165238644Y-95694354D01*
X165176837Y-95786637D01*
X165125873Y-95863983D01*
X165089267Y-95921044D01*
X165070534Y-95952475D01*
X165069144Y-95955459D01*
X165075330Y-95978301D01*
X165105175Y-96020962D01*
X165160087Y-96085108D01*
X165241474Y-96172401D01*
X165328062Y-96261515D01*
X165413387Y-96347421D01*
X165491248Y-96424307D01*
X165556837Y-96487544D01*
X165605345Y-96532503D01*
X165631965Y-96554556D01*
X165633335Y-96555376D01*
X165651603Y-96557814D01*
X165681435Y-96548630D01*
X165726861Y-96525554D01*
X165791910Y-96486317D01*
X165880610Y-96428650D01*
X165994797Y-96351775D01*
X166095302Y-96283550D01*
X166185443Y-96222562D01*
X166259989Y-96172336D01*
X166313705Y-96136396D01*
X166341358Y-96118267D01*
X166343235Y-96117126D01*
X166369730Y-96119339D01*
X166421226Y-96136118D01*
X166487991Y-96164122D01*
X166509312Y-96174102D01*
X166604299Y-96217652D01*
X166712077Y-96264114D01*
X166805332Y-96301857D01*
X166874546Y-96329053D01*
X166927146Y-96350655D01*
X166954637Y-96363138D01*
X166956756Y-96364689D01*
X166960264Y-96387648D01*
X166969878Y-96441766D01*
X166984229Y-96519848D01*
X167001947Y-96614699D01*
X167021665Y-96719123D01*
X167042014Y-96825924D01*
X167061626Y-96927906D01*
X167079131Y-97017874D01*
X167093162Y-97088633D01*
X167102349Y-97132986D01*
X167104947Y-97143865D01*
X167111358Y-97155102D01*
X167125837Y-97163585D01*
X167153273Y-97169694D01*
X167198551Y-97173812D01*
X167266560Y-97176321D01*
X167362187Y-97177601D01*
X167490320Y-97178034D01*
X167542841Y-97178057D01*
X167969985Y-97178057D01*
X167990231Y-97075480D01*
X168001210Y-97018411D01*
X168017235Y-96933249D01*
X168036373Y-96830352D01*
X168056691Y-96720076D01*
X168062272Y-96689595D01*
X168082057Y-96587835D01*
X168101513Y-96499185D01*
X168118837Y-96431088D01*
X168132228Y-96390984D01*
X168136219Y-96384303D01*
X168164482Y-96367899D01*
X168219249Y-96344379D01*
X168289728Y-96318296D01*
X168304909Y-96313122D01*
X168399036Y-96278936D01*
X168505241Y-96236503D01*
X168600613Y-96194977D01*
X168601056Y-96194772D01*
X168750665Y-96125620D01*
X169419757Y-96580492D01*
X169712256Y-96288480D01*
X169799310Y-96200160D01*
X169876049Y-96119605D01*
X169938377Y-96051340D01*
X169982196Y-95999888D01*
X170003410Y-95969774D01*
X170004756Y-95965454D01*
X169994156Y-95940091D01*
X169964687Y-95888338D01*
X169919845Y-95815848D01*
X169863124Y-95728274D01*
X169799602Y-95633592D01*
X169734808Y-95537496D01*
X169678427Y-95451817D01*
X169633928Y-95381996D01*
X169604779Y-95333474D01*
X169594448Y-95311762D01*
X169603190Y-95285273D01*
X169626227Y-95235042D01*
X169658771Y-95171431D01*
X169662389Y-95164688D01*
X169705350Y-95079026D01*
X169726419Y-95020286D01*
X169726643Y-94983752D01*
X169707068Y-94964711D01*
X169706794Y-94964600D01*
X169683612Y-94955082D01*
X169628581Y-94932383D01*
X169545962Y-94898262D01*
X169440012Y-94854480D01*
X169314992Y-94802796D01*
X169175160Y-94744972D01*
X169039777Y-94688971D01*
X168890374Y-94627427D01*
X168751972Y-94570919D01*
X168628813Y-94521141D01*
X168525142Y-94479786D01*
X168445199Y-94448548D01*
X168393228Y-94429121D01*
X168373832Y-94423134D01*
X168351583Y-94438148D01*
X168316122Y-94477419D01*
X168277027Y-94529787D01*
X168153385Y-94678921D01*
X168011662Y-94795491D01*
X167854844Y-94878098D01*
X167685915Y-94925346D01*
X167507862Y-94935837D01*
X167425679Y-94928211D01*
X167255171Y-94886662D01*
X167104599Y-94815103D01*
X166975449Y-94717975D01*
X166869204Y-94599714D01*
X166787350Y-94464760D01*
X166731372Y-94317551D01*
X166702755Y-94162524D01*
X166702984Y-94004119D01*
X166733545Y-93846774D01*
X166795922Y-93694926D01*
X166891600Y-93553015D01*
X166945712Y-93493783D01*
X167084660Y-93380183D01*
X167236501Y-93301086D01*
X167396807Y-93255966D01*
X167561152Y-93244296D01*
X167725111Y-93265549D01*
X167884258Y-93319200D01*
X168034165Y-93404720D01*
X168170407Y-93521585D01*
X168277027Y-93652173D01*
X168317782Y-93706568D01*
X168352858Y-93744994D01*
X168373866Y-93758826D01*
X168396775Y-93751583D01*
X168451505Y-93730985D01*
X168533812Y-93698726D01*
X168639455Y-93656501D01*
X168764190Y-93606003D01*
X168903776Y-93548928D01*
X169039810Y-93492834D01*
X169189341Y-93430947D01*
X169327907Y-93373624D01*
X169451247Y-93322624D01*
X169555104Y-93279707D01*
X169635220Y-93246633D01*
X169687335Y-93225161D01*
X169706794Y-93217205D01*
X169726563Y-93198409D01*
X169726505Y-93162054D01*
X169705581Y-93103459D01*
X169662753Y-93017948D01*
X169662389Y-93017272D01*
X169629152Y-92952887D01*
X169604942Y-92900841D01*
X169594544Y-92871492D01*
X169594448Y-92870197D01*
X169604995Y-92848104D01*
X169634324Y-92799328D01*
X169678967Y-92729311D01*
X169735454Y-92643494D01*
X169799602Y-92548368D01*
X169864551Y-92451520D01*
X169921036Y-92364233D01*
X169965561Y-92292161D01*
X169994630Y-92240957D01*
X170004756Y-92216506D01*
X169991447Y-92193990D01*
X169954252Y-92148722D01*
X169897268Y-92085224D01*
X169824589Y-92008019D01*
X169740311Y-91921631D01*
X169712156Y-91893379D01*
X169419556Y-91601267D01*
X169093244Y-91823611D01*
X168993037Y-91891182D01*
X168903103Y-91950487D01*
X168828650Y-91998197D01*
X168774891Y-92030987D01*
X168747034Y-92045528D01*
X168745052Y-92045954D01*
X168718795Y-92038288D01*
X168665977Y-92017669D01*
X168595450Y-91987665D01*
X168548233Y-91966605D01*
X168457834Y-91927228D01*
X168366506Y-91890145D01*
X168289340Y-91861395D01*
X168265832Y-91853585D01*
X168203056Y-91831397D01*
X168154551Y-91809707D01*
X168136219Y-91797793D01*
X168124999Y-91771503D01*
X168109094Y-91714122D01*
X168090307Y-91633098D01*
X168070439Y-91535875D01*
X168062272Y-91492365D01*
X168041969Y-91381876D01*
X168022310Y-91275896D01*
X168005228Y-91184781D01*
X167992658Y-91118888D01*
X167990231Y-91106480D01*
X167969985Y-91003903D01*
X167542841Y-91003903D01*
X167402386Y-91004133D01*
X167296119Y-91005079D01*
X167219153Y-91007121D01*
X167166600Y-91010642D01*
X167133573Y-91016023D01*
X167115185Y-91023646D01*
X167106548Y-91033892D01*
X167104947Y-91038095D01*
X167099267Y-91063450D01*
X167087935Y-91119464D01*
X167072319Y-91198944D01*
X167053787Y-91294692D01*
X167033709Y-91399513D01*
X167013452Y-91506212D01*
X166994386Y-91607593D01*
X166977879Y-91696459D01*
X166965299Y-91765617D01*
X166958015Y-91807869D01*
X166956756Y-91817270D01*
X166939903Y-91825787D01*
X166895010Y-91844640D01*
X166830570Y-91870304D01*
X166805332Y-91880103D01*
X166707826Y-91919628D01*
X166600099Y-91966172D01*
X166509312Y-92007857D01*
X166439893Y-92038530D01*
X166382850Y-92058936D01*
X166347917Y-92065748D01*
X166343235Y-92064662D01*
X166321131Y-92050265D01*
X166271971Y-92017392D01*
X166200988Y-91969570D01*
X166113418Y-91910328D01*
X166014497Y-91843195D01*
X165994970Y-91829921D01*
X165879280Y-91752026D01*
X165791184Y-91694767D01*
X165726626Y-91655861D01*
X165681551Y-91633024D01*
X165651903Y-91623974D01*
X165633625Y-91626428D01*
X165633509Y-91626491D01*
X165609501Y-91645807D01*
X165563087Y-91688531D01*
X165499077Y-91750031D01*
X165422285Y-91825678D01*
X165337522Y-91910841D01*
X165328062Y-91920445D01*
X165224129Y-92027770D01*
X165147815Y-92110595D01*
X165097711Y-92170585D01*
X165072410Y-92209403D01*
X165069144Y-92226500D01*
X165083390Y-92251453D01*
X165116296Y-92303235D01*
X165164348Y-92376500D01*
X165224030Y-92465900D01*
X165291828Y-92566091D01*
X165307779Y-92589481D01*
X165534560Y-92921573D01*
X165466493Y-93071545D01*
X165426825Y-93162750D01*
X165386931Y-93260649D01*
X165355123Y-93344811D01*
X165353814Y-93348518D01*
X165329716Y-93414349D01*
X165309340Y-93465096D01*
X165297076Y-93489822D01*
X165297041Y-93489864D01*
X165274874Y-93497709D01*
X165220357Y-93511046D01*
X165139620Y-93528550D01*
X165038790Y-93548897D01*
X164923996Y-93570762D01*
X164914318Y-93572551D01*
X164796044Y-93594484D01*
X164688682Y-93614620D01*
X164599057Y-93631660D01*
X164533991Y-93644308D01*
X164500308Y-93651264D01*
X164499794Y-93651386D01*
X164485465Y-93655619D01*
X164474647Y-93663851D01*
X164466846Y-93681013D01*
X164461569Y-93712038D01*
X164458322Y-93761858D01*
X164456612Y-93835404D01*
X164455947Y-93937609D01*
X164455833Y-94073405D01*
X164455832Y-94090980D01*
X164455916Y-94230858D01*
X164455916Y-94230858D01*
G37*
X164455916Y-94230858D02*
X164456495Y-94336592D01*
X164458062Y-94413112D01*
X164461112Y-94465352D01*
X164466136Y-94498243D01*
X164473629Y-94516717D01*
X164484084Y-94525707D01*
X164497993Y-94530143D01*
X164499794Y-94530574D01*
X164532285Y-94537313D01*
X164596392Y-94549788D01*
X164685291Y-94566699D01*
X164792159Y-94586751D01*
X164910173Y-94608644D01*
X164914318Y-94609409D01*
X165029971Y-94631339D01*
X165132154Y-94651857D01*
X165214738Y-94669639D01*
X165271596Y-94683361D01*
X165296598Y-94691698D01*
X165297041Y-94692096D01*
X165309250Y-94716657D01*
X165329596Y-94767295D01*
X165353685Y-94833075D01*
X165353814Y-94833441D01*
X165384958Y-94916297D01*
X165424631Y-95013980D01*
X165464521Y-95106057D01*
X165466493Y-95110414D01*
X165534560Y-95260387D01*
X165307779Y-95592478D01*
X165238644Y-95694354D01*
X165176837Y-95786637D01*
X165125873Y-95863983D01*
X165089267Y-95921044D01*
X165070534Y-95952475D01*
X165069144Y-95955459D01*
X165075330Y-95978301D01*
X165105175Y-96020962D01*
X165160087Y-96085108D01*
X165241474Y-96172401D01*
X165328062Y-96261515D01*
X165413387Y-96347421D01*
X165491248Y-96424307D01*
X165556837Y-96487544D01*
X165605345Y-96532503D01*
X165631965Y-96554556D01*
X165633335Y-96555376D01*
X165651603Y-96557814D01*
X165681435Y-96548630D01*
X165726861Y-96525554D01*
X165791910Y-96486317D01*
X165880610Y-96428650D01*
X165994797Y-96351775D01*
X166095302Y-96283550D01*
X166185443Y-96222562D01*
X166259989Y-96172336D01*
X166313705Y-96136396D01*
X166341358Y-96118267D01*
X166343235Y-96117126D01*
X166369730Y-96119339D01*
X166421226Y-96136118D01*
X166487991Y-96164122D01*
X166509312Y-96174102D01*
X166604299Y-96217652D01*
X166712077Y-96264114D01*
X166805332Y-96301857D01*
X166874546Y-96329053D01*
X166927146Y-96350655D01*
X166954637Y-96363138D01*
X166956756Y-96364689D01*
X166960264Y-96387648D01*
X166969878Y-96441766D01*
X166984229Y-96519848D01*
X167001947Y-96614699D01*
X167021665Y-96719123D01*
X167042014Y-96825924D01*
X167061626Y-96927906D01*
X167079131Y-97017874D01*
X167093162Y-97088633D01*
X167102349Y-97132986D01*
X167104947Y-97143865D01*
X167111358Y-97155102D01*
X167125837Y-97163585D01*
X167153273Y-97169694D01*
X167198551Y-97173812D01*
X167266560Y-97176321D01*
X167362187Y-97177601D01*
X167490320Y-97178034D01*
X167542841Y-97178057D01*
X167969985Y-97178057D01*
X167990231Y-97075480D01*
X168001210Y-97018411D01*
X168017235Y-96933249D01*
X168036373Y-96830352D01*
X168056691Y-96720076D01*
X168062272Y-96689595D01*
X168082057Y-96587835D01*
X168101513Y-96499185D01*
X168118837Y-96431088D01*
X168132228Y-96390984D01*
X168136219Y-96384303D01*
X168164482Y-96367899D01*
X168219249Y-96344379D01*
X168289728Y-96318296D01*
X168304909Y-96313122D01*
X168399036Y-96278936D01*
X168505241Y-96236503D01*
X168600613Y-96194977D01*
X168601056Y-96194772D01*
X168750665Y-96125620D01*
X169419757Y-96580492D01*
X169712256Y-96288480D01*
X169799310Y-96200160D01*
X169876049Y-96119605D01*
X169938377Y-96051340D01*
X169982196Y-95999888D01*
X170003410Y-95969774D01*
X170004756Y-95965454D01*
X169994156Y-95940091D01*
X169964687Y-95888338D01*
X169919845Y-95815848D01*
X169863124Y-95728274D01*
X169799602Y-95633592D01*
X169734808Y-95537496D01*
X169678427Y-95451817D01*
X169633928Y-95381996D01*
X169604779Y-95333474D01*
X169594448Y-95311762D01*
X169603190Y-95285273D01*
X169626227Y-95235042D01*
X169658771Y-95171431D01*
X169662389Y-95164688D01*
X169705350Y-95079026D01*
X169726419Y-95020286D01*
X169726643Y-94983752D01*
X169707068Y-94964711D01*
X169706794Y-94964600D01*
X169683612Y-94955082D01*
X169628581Y-94932383D01*
X169545962Y-94898262D01*
X169440012Y-94854480D01*
X169314992Y-94802796D01*
X169175160Y-94744972D01*
X169039777Y-94688971D01*
X168890374Y-94627427D01*
X168751972Y-94570919D01*
X168628813Y-94521141D01*
X168525142Y-94479786D01*
X168445199Y-94448548D01*
X168393228Y-94429121D01*
X168373832Y-94423134D01*
X168351583Y-94438148D01*
X168316122Y-94477419D01*
X168277027Y-94529787D01*
X168153385Y-94678921D01*
X168011662Y-94795491D01*
X167854844Y-94878098D01*
X167685915Y-94925346D01*
X167507862Y-94935837D01*
X167425679Y-94928211D01*
X167255171Y-94886662D01*
X167104599Y-94815103D01*
X166975449Y-94717975D01*
X166869204Y-94599714D01*
X166787350Y-94464760D01*
X166731372Y-94317551D01*
X166702755Y-94162524D01*
X166702984Y-94004119D01*
X166733545Y-93846774D01*
X166795922Y-93694926D01*
X166891600Y-93553015D01*
X166945712Y-93493783D01*
X167084660Y-93380183D01*
X167236501Y-93301086D01*
X167396807Y-93255966D01*
X167561152Y-93244296D01*
X167725111Y-93265549D01*
X167884258Y-93319200D01*
X168034165Y-93404720D01*
X168170407Y-93521585D01*
X168277027Y-93652173D01*
X168317782Y-93706568D01*
X168352858Y-93744994D01*
X168373866Y-93758826D01*
X168396775Y-93751583D01*
X168451505Y-93730985D01*
X168533812Y-93698726D01*
X168639455Y-93656501D01*
X168764190Y-93606003D01*
X168903776Y-93548928D01*
X169039810Y-93492834D01*
X169189341Y-93430947D01*
X169327907Y-93373624D01*
X169451247Y-93322624D01*
X169555104Y-93279707D01*
X169635220Y-93246633D01*
X169687335Y-93225161D01*
X169706794Y-93217205D01*
X169726563Y-93198409D01*
X169726505Y-93162054D01*
X169705581Y-93103459D01*
X169662753Y-93017948D01*
X169662389Y-93017272D01*
X169629152Y-92952887D01*
X169604942Y-92900841D01*
X169594544Y-92871492D01*
X169594448Y-92870197D01*
X169604995Y-92848104D01*
X169634324Y-92799328D01*
X169678967Y-92729311D01*
X169735454Y-92643494D01*
X169799602Y-92548368D01*
X169864551Y-92451520D01*
X169921036Y-92364233D01*
X169965561Y-92292161D01*
X169994630Y-92240957D01*
X170004756Y-92216506D01*
X169991447Y-92193990D01*
X169954252Y-92148722D01*
X169897268Y-92085224D01*
X169824589Y-92008019D01*
X169740311Y-91921631D01*
X169712156Y-91893379D01*
X169419556Y-91601267D01*
X169093244Y-91823611D01*
X168993037Y-91891182D01*
X168903103Y-91950487D01*
X168828650Y-91998197D01*
X168774891Y-92030987D01*
X168747034Y-92045528D01*
X168745052Y-92045954D01*
X168718795Y-92038288D01*
X168665977Y-92017669D01*
X168595450Y-91987665D01*
X168548233Y-91966605D01*
X168457834Y-91927228D01*
X168366506Y-91890145D01*
X168289340Y-91861395D01*
X168265832Y-91853585D01*
X168203056Y-91831397D01*
X168154551Y-91809707D01*
X168136219Y-91797793D01*
X168124999Y-91771503D01*
X168109094Y-91714122D01*
X168090307Y-91633098D01*
X168070439Y-91535875D01*
X168062272Y-91492365D01*
X168041969Y-91381876D01*
X168022310Y-91275896D01*
X168005228Y-91184781D01*
X167992658Y-91118888D01*
X167990231Y-91106480D01*
X167969985Y-91003903D01*
X167542841Y-91003903D01*
X167402386Y-91004133D01*
X167296119Y-91005079D01*
X167219153Y-91007121D01*
X167166600Y-91010642D01*
X167133573Y-91016023D01*
X167115185Y-91023646D01*
X167106548Y-91033892D01*
X167104947Y-91038095D01*
X167099267Y-91063450D01*
X167087935Y-91119464D01*
X167072319Y-91198944D01*
X167053787Y-91294692D01*
X167033709Y-91399513D01*
X167013452Y-91506212D01*
X166994386Y-91607593D01*
X166977879Y-91696459D01*
X166965299Y-91765617D01*
X166958015Y-91807869D01*
X166956756Y-91817270D01*
X166939903Y-91825787D01*
X166895010Y-91844640D01*
X166830570Y-91870304D01*
X166805332Y-91880103D01*
X166707826Y-91919628D01*
X166600099Y-91966172D01*
X166509312Y-92007857D01*
X166439893Y-92038530D01*
X166382850Y-92058936D01*
X166347917Y-92065748D01*
X166343235Y-92064662D01*
X166321131Y-92050265D01*
X166271971Y-92017392D01*
X166200988Y-91969570D01*
X166113418Y-91910328D01*
X166014497Y-91843195D01*
X165994970Y-91829921D01*
X165879280Y-91752026D01*
X165791184Y-91694767D01*
X165726626Y-91655861D01*
X165681551Y-91633024D01*
X165651903Y-91623974D01*
X165633625Y-91626428D01*
X165633509Y-91626491D01*
X165609501Y-91645807D01*
X165563087Y-91688531D01*
X165499077Y-91750031D01*
X165422285Y-91825678D01*
X165337522Y-91910841D01*
X165328062Y-91920445D01*
X165224129Y-92027770D01*
X165147815Y-92110595D01*
X165097711Y-92170585D01*
X165072410Y-92209403D01*
X165069144Y-92226500D01*
X165083390Y-92251453D01*
X165116296Y-92303235D01*
X165164348Y-92376500D01*
X165224030Y-92465900D01*
X165291828Y-92566091D01*
X165307779Y-92589481D01*
X165534560Y-92921573D01*
X165466493Y-93071545D01*
X165426825Y-93162750D01*
X165386931Y-93260649D01*
X165355123Y-93344811D01*
X165353814Y-93348518D01*
X165329716Y-93414349D01*
X165309340Y-93465096D01*
X165297076Y-93489822D01*
X165297041Y-93489864D01*
X165274874Y-93497709D01*
X165220357Y-93511046D01*
X165139620Y-93528550D01*
X165038790Y-93548897D01*
X164923996Y-93570762D01*
X164914318Y-93572551D01*
X164796044Y-93594484D01*
X164688682Y-93614620D01*
X164599057Y-93631660D01*
X164533991Y-93644308D01*
X164500308Y-93651264D01*
X164499794Y-93651386D01*
X164485465Y-93655619D01*
X164474647Y-93663851D01*
X164466846Y-93681013D01*
X164461569Y-93712038D01*
X164458322Y-93761858D01*
X164456612Y-93835404D01*
X164455947Y-93937609D01*
X164455833Y-94073405D01*
X164455832Y-94090980D01*
X164455916Y-94230858D01*
D13*
X129092780Y-75813140D02*
X125993980Y-77012020D01*
X125993980Y-77012020D02*
X126392760Y-76412580D01*
X127093800Y-75411820D02*
X124292180Y-76712300D01*
X129092780Y-75813140D02*
X128394280Y-76412580D01*
X124094060Y-76211920D02*
X127093800Y-75411820D01*
X127093800Y-75411820D02*
X126293700Y-76610700D01*
X126293700Y-76610700D02*
X129092780Y-75813140D01*
X129092780Y-75813140D02*
X128193620Y-75711540D01*
X122702140Y-76310980D02*
X129687140Y-81009980D01*
X129687140Y-81009980D02*
X129687140Y-71611980D01*
X129687140Y-71611980D02*
X122702140Y-76310980D01*
D14*
X185945000Y-77670000D03*
X185945000Y-73670000D03*
D15*
X180865000Y-108690000D03*
D16*
X183405000Y-108690000D03*
X185945000Y-108690000D03*
X188485000Y-108690000D03*
X191025000Y-108690000D03*
D17*
X189755000Y-73130000D03*
D18*
X189755000Y-75670000D03*
X189755000Y-78210000D03*
D19*
X111013820Y-110579260D03*
D20*
X111013820Y-115579260D03*
D19*
X111013820Y-70574260D03*
D20*
X111013820Y-75574260D03*
D21*
X147845000Y-74400000D03*
D22*
X142845000Y-74400000D03*
D23*
X157370000Y-80750000D03*
D24*
X157370000Y-73150000D03*
D15*
X147845000Y-81385000D03*
D16*
X145305000Y-81385000D03*
D15*
X189755000Y-115040000D03*
D16*
X187215000Y-115040000D03*
X184675000Y-115040000D03*
X182135000Y-115040000D03*
X179595000Y-115040000D03*
X177055000Y-115040000D03*
X174515000Y-115040000D03*
X171975000Y-115040000D03*
X169435000Y-115040000D03*
X166895000Y-115040000D03*
X164355000Y-115040000D03*
X161815000Y-115040000D03*
X159275000Y-115040000D03*
X156735000Y-115040000D03*
X154195000Y-115040000D03*
X151655000Y-115040000D03*
X149115000Y-115040000D03*
D25*
X178325000Y-75670000D03*
D26*
X183405000Y-75670000D03*
D27*
X165625000Y-70590000D03*
D26*
X168165000Y-70590000D03*
X170705000Y-70590000D03*
D27*
X165625000Y-78210000D03*
D26*
X168165000Y-78210000D03*
X170705000Y-78210000D03*
D27*
X165625000Y-75670000D03*
D26*
X168165000Y-75670000D03*
X170705000Y-75670000D03*
D27*
X165625000Y-73130000D03*
D26*
X168165000Y-73130000D03*
X170705000Y-73130000D03*
D25*
X182135000Y-72495000D03*
D26*
X179595000Y-72495000D03*
D28*
X196493140Y-112990980D03*
D29*
X198893140Y-112990980D03*
X198190196Y-114688036D03*
X196493140Y-115390980D03*
X194796084Y-114688036D03*
X194093140Y-112990980D03*
X194796084Y-111293924D03*
X196493140Y-110590980D03*
X198190196Y-111293924D03*
D28*
X136493140Y-112990980D03*
D29*
X138893140Y-112990980D03*
X138190196Y-114688036D03*
X136493140Y-115390980D03*
X134796084Y-114688036D03*
X134093140Y-112990980D03*
X134796084Y-111293924D03*
X136493140Y-110590980D03*
X138190196Y-111293924D03*
D23*
X150128140Y-90915980D03*
X155728140Y-90915980D03*
D26*
X124985000Y-96625000D03*
X124985000Y-104245000D03*
D30*
X175785000Y-83290000D03*
X175785000Y-70590000D03*
D26*
X124985000Y-83925000D03*
X124985000Y-88925000D03*
D28*
X136493140Y-72990980D03*
D29*
X138893140Y-72990980D03*
X138190196Y-74688036D03*
X136493140Y-75390980D03*
X134796084Y-74688036D03*
X134093140Y-72990980D03*
X134796084Y-71293924D03*
X136493140Y-70590980D03*
X138190196Y-71293924D03*
D30*
X152928140Y-94725980D03*
D26*
X160548140Y-94725980D03*
X131335000Y-106785000D03*
X131335000Y-99165000D03*
X128160000Y-104245000D03*
X128160000Y-96625000D03*
X124985000Y-91545000D03*
X132605000Y-91545000D03*
D23*
X145305000Y-112500000D03*
D24*
X145305000Y-109960000D03*
X145305000Y-107420000D03*
D28*
X196493140Y-72990980D03*
D29*
X194093140Y-72990980D03*
X194796084Y-71293924D03*
X196493140Y-70590980D03*
X198190196Y-71293924D03*
X198893140Y-72990980D03*
X198190196Y-74688036D03*
X196493140Y-75390980D03*
X194796084Y-74688036D03*
D25*
X114823820Y-90259260D03*
D26*
X111648820Y-92799260D03*
X114823820Y-95339260D03*
D23*
X135145000Y-96625000D03*
D24*
X142765000Y-101705000D03*
X135145000Y-99165000D03*
X142765000Y-99165000D03*
X135145000Y-101705000D03*
X142765000Y-96625000D03*
D23*
X142765000Y-91545000D03*
D24*
X135145000Y-86465000D03*
X142765000Y-89005000D03*
X135145000Y-89005000D03*
X142765000Y-86465000D03*
X135145000Y-91545000D03*
D31*
X147845000Y-102805000D03*
D32*
X150385000Y-102805000D03*
X152925000Y-102805000D03*
X155465000Y-102805000D03*
X158005000Y-102805000D03*
X160545000Y-102805000D03*
X163085000Y-102805000D03*
X165625000Y-102805000D03*
X168165000Y-102805000D03*
X170705000Y-102805000D03*
X173245000Y-102805000D03*
X175785000Y-102805000D03*
X178325000Y-102805000D03*
X180865000Y-102805000D03*
X183405000Y-102805000D03*
X183405000Y-85365000D03*
X180865000Y-85365000D03*
X178325000Y-85365000D03*
X175785000Y-85365000D03*
X173245000Y-85365000D03*
X170705000Y-85365000D03*
X168165000Y-85365000D03*
X165625000Y-85365000D03*
X163085000Y-85365000D03*
X160545000Y-85365000D03*
X158005000Y-85365000D03*
X155465000Y-85365000D03*
X152925000Y-85365000D03*
X150385000Y-85365000D03*
X147845000Y-85365000D03*
D33*
X104663820Y-97639260D03*
X104663820Y-102639260D03*
X104663820Y-87639260D03*
X104663820Y-82639260D03*
D34*
X150388140Y-89010980D02*
X150388140Y-90375980D01*
X150388140Y-90375980D02*
X150928140Y-90915980D01*
X189755000Y-78210000D02*
X186485000Y-78210000D01*
X186485000Y-78210000D02*
X185945000Y-77670000D01*
X191025000Y-79480000D02*
X189755000Y-78210000D01*
X149115000Y-112500000D02*
X149115000Y-115040000D01*
X144780000Y-101600000D02*
X142765000Y-101705000D01*
X146575000Y-99165000D02*
X144780000Y-101600000D01*
X154195000Y-99165000D02*
X146575000Y-99165000D01*
X147845000Y-74400000D02*
X147845000Y-75670000D01*
X147845000Y-75670000D02*
X150385000Y-78210000D01*
X150388140Y-89010980D02*
X142765000Y-89005000D01*
X171975000Y-73130000D02*
X177055000Y-78210000D01*
X170705000Y-73130000D02*
X171975000Y-73130000D01*
X157370000Y-73150000D02*
X149095000Y-73150000D01*
X149095000Y-73150000D02*
X147845000Y-74400000D01*
X161180000Y-73130000D02*
X157370000Y-73150000D01*
X165625000Y-73130000D02*
X161180000Y-73130000D01*
X170705000Y-73130000D02*
X168165000Y-73130000D01*
X168165000Y-73130000D02*
X165625000Y-73130000D01*
X150385000Y-78210000D02*
X150385000Y-86465000D01*
X150385000Y-86465000D02*
X150385000Y-88370000D01*
X150385000Y-88370000D02*
X150388140Y-89010980D01*
X155465000Y-101705000D02*
X155465000Y-106150000D01*
X155465000Y-101705000D02*
X155465000Y-100435000D01*
X155465000Y-100435000D02*
X154195000Y-99165000D01*
X177055000Y-78210000D02*
X185945000Y-78210000D01*
X155465000Y-106150000D02*
X149115000Y-112500000D01*
X149115000Y-112500000D02*
X145305000Y-112500000D01*
X191025000Y-108690000D02*
X191025000Y-79480000D01*
X189755000Y-115040000D02*
X189755000Y-113135000D01*
X189755000Y-113135000D02*
X191025000Y-111230000D01*
X191025000Y-111230000D02*
X191025000Y-111230000D01*
X191025000Y-111230000D02*
X191025000Y-108690000D01*
X189755000Y-115040000D02*
X187215000Y-115040000D01*
X187215000Y-115040000D02*
X187215000Y-115040000D01*
X187215000Y-115040000D02*
X187215000Y-115040000D01*
D35*
X171975000Y-115040000D02*
X169435000Y-115040000D01*
X171975000Y-111230000D02*
X171975000Y-115040000D01*
X180865000Y-101705000D02*
X180865000Y-104880000D01*
X180865000Y-104880000D02*
X171975000Y-111230000D01*
X150385000Y-101705000D02*
X150385000Y-107420000D01*
X150385000Y-107420000D02*
X147845000Y-109960000D01*
X147845000Y-109960000D02*
X145305000Y-109960000D01*
X147845000Y-105515000D02*
X145940000Y-107420000D01*
X147845000Y-101705000D02*
X147845000Y-105515000D01*
X158005000Y-99800000D02*
X158005000Y-101705000D01*
X142765000Y-99165000D02*
X144780000Y-99060000D01*
X144780000Y-99060000D02*
X145940000Y-97260000D01*
X145940000Y-97260000D02*
X155465000Y-97260000D01*
X155465000Y-97260000D02*
X158005000Y-99800000D01*
X159275000Y-112500000D02*
X159275000Y-115040000D01*
X170705000Y-101705000D02*
X170705000Y-104880000D01*
X170705000Y-104880000D02*
X159275000Y-112500000D01*
X161815000Y-112500000D02*
X161815000Y-115040000D01*
X173245000Y-101705000D02*
X173245000Y-104880000D01*
X173245000Y-104880000D02*
X161815000Y-112500000D01*
X164355000Y-112500000D02*
X164355000Y-115040000D01*
X175785000Y-101705000D02*
X175785000Y-104880000D01*
X175785000Y-104880000D02*
X164355000Y-112500000D01*
X166895000Y-114405000D02*
X166895000Y-114405000D01*
X178325000Y-101705000D02*
X178325000Y-104880000D01*
X178325000Y-104880000D02*
X166895000Y-112500000D01*
X166895000Y-112500000D02*
X166895000Y-115040000D01*
X180865000Y-108690000D02*
X178960000Y-108690000D01*
X174515000Y-111865000D02*
X174515000Y-115040000D01*
X178960000Y-108690000D02*
X174515000Y-111865000D01*
X183405000Y-104880000D02*
X180865000Y-106785000D01*
X180865000Y-106785000D02*
X180865000Y-108690000D01*
X174515000Y-113930000D02*
X174515000Y-115040000D01*
X183405000Y-101705000D02*
X183405000Y-104880000D01*
D34*
X155465000Y-86465000D02*
X155468140Y-90280980D01*
X155468140Y-90280980D02*
X154833140Y-90915980D01*
X155465000Y-86465000D02*
X155465000Y-83290000D01*
X155465000Y-83290000D02*
X153560000Y-82020000D01*
X155370000Y-86560000D02*
X155465000Y-86465000D01*
X153560000Y-82020000D02*
X153560000Y-78845000D01*
X153560000Y-78845000D02*
X156735000Y-75670000D01*
X176049584Y-80115000D02*
X171975000Y-75670000D01*
X176049584Y-80115000D02*
X185945000Y-80115000D01*
X188485000Y-82655000D02*
X185945000Y-80115000D01*
X171975000Y-75670000D02*
X171340000Y-75670000D01*
X171340000Y-75670000D02*
X170705000Y-75670000D01*
X170705000Y-75670000D02*
X168165000Y-75670000D01*
X168165000Y-75670000D02*
X165625000Y-75670000D01*
X156735000Y-75670000D02*
X165625000Y-75670000D01*
X188485000Y-82655000D02*
X188485000Y-103610000D01*
X188485000Y-103610000D02*
X188485000Y-108690000D01*
X188485000Y-108690000D02*
X188485000Y-111230000D01*
X184675000Y-113770000D02*
X184675000Y-115040000D01*
X186580000Y-111865000D02*
X184675000Y-113770000D01*
X187850000Y-111865000D02*
X186580000Y-111865000D01*
X188485000Y-111230000D02*
X187850000Y-111865000D01*
X188485000Y-108690000D02*
X188485000Y-108690000D01*
X184675000Y-115040000D02*
X182135000Y-115040000D01*
X170705000Y-70590000D02*
X171975000Y-70590000D01*
X171975000Y-70590000D02*
X174515000Y-73130000D01*
X174515000Y-73130000D02*
X178325000Y-73130000D01*
X170705000Y-70590000D02*
X168165000Y-70590000D01*
X168165000Y-70590000D02*
X165625000Y-70590000D01*
X165625000Y-70590000D02*
X163720000Y-70590000D01*
X144035000Y-70590000D02*
X163720000Y-70590000D01*
X178325000Y-75670000D02*
X178325000Y-73130000D01*
X178325000Y-73130000D02*
X179595000Y-72495000D01*
X142845000Y-74400000D02*
X142765000Y-79480000D01*
X142765000Y-79480000D02*
X144670000Y-81385000D01*
X142800000Y-74375000D02*
X142765000Y-71860000D01*
X142765000Y-71860000D02*
X144035000Y-70590000D01*
D35*
X185310000Y-99800000D02*
X173245000Y-87735000D01*
X185310000Y-99800000D02*
X185310000Y-105515000D01*
X183405000Y-106785000D02*
X185310000Y-105515000D01*
X173245000Y-87735000D02*
X173245000Y-86465000D01*
X183405000Y-108690000D02*
X183405000Y-106785000D01*
X185945000Y-108690000D02*
X185945000Y-106785000D01*
X185945000Y-106785000D02*
X186580000Y-106150000D01*
X186580000Y-106150000D02*
X186580000Y-98530000D01*
X180865000Y-111865000D02*
X179595000Y-113135000D01*
X179595000Y-113135000D02*
X179595000Y-115040000D01*
X179595000Y-115040000D02*
X177055000Y-115040000D01*
X184040000Y-111865000D02*
X180865000Y-111865000D01*
X185945000Y-108690000D02*
X185945000Y-109960000D01*
X185945000Y-109960000D02*
X184040000Y-111865000D01*
X183405000Y-95355000D02*
X183405000Y-86465000D01*
X186580000Y-98530000D02*
X183405000Y-95355000D01*
X175785000Y-86465000D02*
X175785000Y-83290000D01*
D34*
X183405000Y-75670000D02*
X183405000Y-73130000D01*
X183405000Y-73130000D02*
X182135000Y-72495000D01*
X183405000Y-75670000D02*
X189755000Y-75670000D01*
X147845000Y-86465000D02*
X147845000Y-81385000D01*
D35*
X151655000Y-112500000D02*
X151655000Y-113135000D01*
X163085000Y-104880000D02*
X151655000Y-112500000D01*
X163085000Y-101705000D02*
X163085000Y-104880000D01*
X154195000Y-112500000D02*
X154195000Y-113135000D01*
X165625000Y-104880000D02*
X154195000Y-112500000D01*
X165625000Y-101705000D02*
X165625000Y-104880000D01*
X156735000Y-112500000D02*
X156735000Y-113135000D01*
X168165000Y-104880000D02*
X156735000Y-112500000D01*
X168165000Y-101705000D02*
X168165000Y-104880000D01*
D34*
X135145000Y-86465000D02*
X122443199Y-86450009D01*
X122443199Y-86450009D02*
X119903820Y-89511689D01*
X119903820Y-89511689D02*
X119903820Y-92799260D01*
X119903820Y-92799260D02*
X117363820Y-95339260D01*
X117363820Y-95339260D02*
X114823820Y-95339260D01*
D36*
X135145000Y-91545000D02*
X132605000Y-91545000D01*
D35*
X160548140Y-94725980D02*
X160545000Y-101705000D01*
D34*
X124985000Y-91545000D02*
X124985000Y-96625000D01*
X124985000Y-90275000D02*
X124985000Y-90910000D01*
X124985000Y-88925000D02*
X124985000Y-90275000D01*
X135145000Y-96625000D02*
X128795000Y-96625000D01*
X135145000Y-99165000D02*
X131970000Y-99165000D01*
D35*
X142765000Y-91545000D02*
X145943140Y-94725980D01*
X145943140Y-94725980D02*
X152833140Y-94725980D01*
D34*
X142765000Y-91545000D02*
X142765000Y-91545000D01*
D35*
X170705000Y-86465000D02*
X170705000Y-83925000D01*
X170705000Y-83925000D02*
X170705000Y-78210000D01*
X168165000Y-83290000D02*
X168165000Y-78210000D01*
X168165000Y-86465000D02*
X168165000Y-83290000D01*
X165625000Y-78845000D02*
X165625000Y-78210000D01*
X165625000Y-86465000D02*
X165625000Y-78845000D01*
X157370000Y-80750000D02*
X161815000Y-80750000D01*
X163085000Y-82020000D02*
X161815000Y-80750000D01*
X163085000Y-82020000D02*
X163085000Y-86465000D01*
D37*
X114823820Y-87084260D02*
X114823820Y-90259260D01*
X114825000Y-70590000D02*
X111013820Y-70574260D01*
X117998820Y-83909260D02*
X114823820Y-87084260D01*
X118038820Y-83909260D02*
X117998820Y-83909260D01*
X118038820Y-83909260D02*
X118002362Y-73767362D01*
X114825000Y-70590000D02*
X118002362Y-73767362D01*
X118038820Y-83909260D02*
X118038820Y-83274260D01*
X118038820Y-83274260D02*
X118038820Y-83909260D01*
D34*
X124985000Y-83925000D02*
X117998820Y-83909260D01*
D37*
X109745000Y-104245000D02*
X109743820Y-92799260D01*
X109743820Y-92799260D02*
X111648820Y-92799260D01*
D34*
X128160000Y-104245000D02*
X124985000Y-104245000D01*
X124985000Y-104245000D02*
X109745000Y-104245000D01*
D37*
X109745000Y-104245000D02*
X109743820Y-109944260D01*
X109743820Y-109944260D02*
X109872000Y-109833000D01*
X109872000Y-109833000D02*
X109872000Y-109833000D01*
D34*
X130700000Y-107420000D02*
X123080000Y-115040000D01*
D35*
X185945000Y-73670000D02*
X189215000Y-73670000D01*
X189215000Y-73670000D02*
X189755000Y-73130000D01*
X185945000Y-73765000D02*
X185945000Y-71225000D01*
X185945000Y-71225000D02*
X184675000Y-69955000D01*
X185945000Y-73765000D02*
X185945000Y-73670000D01*
X176420000Y-69955000D02*
X175785000Y-70590000D01*
X184675000Y-69955000D02*
X176420000Y-69955000D01*
D37*
X106568820Y-115659260D02*
X111013820Y-115659260D01*
D34*
X123080000Y-115040000D02*
X112920000Y-115040000D01*
X112920000Y-115040000D02*
X111013820Y-115579260D01*
D37*
X104792000Y-113516000D02*
X104792000Y-102324260D01*
X104792000Y-102324260D02*
X104792000Y-97990980D01*
X104792000Y-113516000D02*
X106568820Y-115659260D01*
X104663820Y-87719260D02*
X104663820Y-82639260D01*
X104663820Y-82639260D02*
X104663820Y-78194260D01*
X104663820Y-78194260D02*
X106570000Y-75670000D01*
X106570000Y-75670000D02*
X110378820Y-75654260D01*
M02*